/* XPM */
static char *result[] = {
/* columns rows colors chars-per-pixel */
"64 64 204 2 ",
"   c #291D0D",
".  c #2B1D0C",
"X  c #302313",
"o  c #332516",
"O  c #392717",
"+  c #362916",
"@  c #392916",
"#  c #392919",
"$  c #39291A",
"%  c #392A1B",
"&  c #3D2A19",
"*  c #3C2B1C",
"=  c #3C2C1C",
"-  c #3D2F1E",
";  c #3E301F",
":  c #452D1A",
">  c #462C1A",
",  c #492E1A",
"<  c #482F1D",
"1  c #42311F",
"2  c #422F20",
"3  c #413021",
"4  c #423021",
"5  c #413221",
"6  c #463122",
"7  c #433422",
"8  c #443524",
"9  c #463627",
"0  c #493322",
"q  c #4A3627",
"w  c #4E3825",
"e  c #4A3B28",
"r  c #4D3B2A",
"t  c #4F3A2A",
"y  c #503B21",
"u  c #513B2B",
"i  c #543D2D",
"p  c #603B25",
"a  c #4F4029",
"s  c #574025",
"d  c #574129",
"f  c #53432C",
"g  c #55462F",
"h  c #5B462A",
"j  c #57492F",
"k  c #5B4A2F",
"l  c #554433",
"z  c #584030",
"x  c #594131",
"c  c #5B4333",
"v  c #5F4634",
"b  c #5F4636",
"n  c #5B4C32",
"m  c #5F4836",
"M  c #5D4B36",
"N  c #74462E",
"B  c #644432",
"V  c #674734",
"C  c #684734",
"Z  c #644B33",
"A  c #664D32",
"S  c #674D35",
"D  c #604A39",
"F  c #684C3A",
"G  c #684E3C",
"H  c #7B4D34",
"J  c #7C4D35",
"K  c #64513B",
"L  c #67533D",
"P  c #695238",
"I  c #6F5638",
"U  c #77513E",
"Y  c #76573E",
"T  c #7A5D3A",
"R  c #645441",
"E  c #675644",
"W  c #6C5242",
"Q  c #695744",
"!  c #7C5741",
"~  c #725A43",
"^  c #775D41",
"/  c #7E5E45",
"(  c #705C4A",
")  c #745C4A",
"_  c #745F4D",
"`  c #7E644D",
"'  c #776250",
"]  c #786653",
"[  c #865135",
"{  c #83563F",
"}  c #86553D",
"|  c #8E5539",
" . c #80603A",
".. c #80623D",
"X. c #965C41",
"o. c #9A5E42",
"O. c #9D5E40",
"+. c #836442",
"@. c #806743",
"#. c #856147",
"$. c #806945",
"%. c #896843",
"&. c #896A46",
"*. c #806D4B",
"=. c #806F4E",
"-. c #896E4B",
";. c #9E6345",
":. c #916648",
">. c #89704E",
",. c #9C764A",
"<. c #846F59",
"1. c #897453",
"2. c #897656",
"3. c #897058",
"4. c #88715C",
"5. c #89775D",
"6. c #90765B",
"7. c #967A5B",
"8. c #997C5E",
"9. c #A16143",
"0. c #A56243",
"q. c #AA6746",
"w. c #A46C4B",
"e. c #AF714C",
"r. c #A07A4C",
"t. c #B3724C",
"y. c #A27B50",
"u. c #AB8256",
"i. c #B08559",
"p. c #B38C5F",
"a. c #B98F5F",
"s. c #BF8C5D",
"d. c #998660",
"f. c #9D8366",
"g. c #A38360",
"h. c #A08D65",
"j. c #A38968",
"k. c #A28E69",
"l. c #A48F69",
"z. c #AE8D68",
"x. c #AF8E69",
"c. c #AB946F",
"v. c #BB9262",
"b. c #BE9763",
"n. c #AC9872",
"m. c #BB9D77",
"M. c #B79E78",
"N. c #BEA374",
"B. c #BBA37F",
"V. c #BEA97C",
"C. c #C38E5E",
"Z. c #C1945F",
"A. c #CF925F",
"S. c #C49761",
"D. c #C79964",
"F. c #CA9A61",
"G. c #CA9C64",
"H. c #CD9D64",
"J. c #CD9F67",
"K. c #C0986A",
"L. c #CAA06A",
"P. c #CAA26C",
"I. c #CDA36D",
"U. c #CDA56F",
"Y. c #D1A36C",
"T. c #D2A36D",
"R. c #CAAD7A",
"E. c #CAAF7D",
"W. c #CDAF7D",
"Q. c #D6AB75",
"!. c #DEAE76",
"~. c #E3AD6E",
"^. c #E4AE6F",
"/. c #E3B477",
"(. c #EFB775",
"). c #E4B478",
"_. c #E3BA7F",
"`. c #EFB978",
"'. c #E9BA7D",
"]. c #EFBD7D",
"[. c #CAB382",
"{. c #CDB180",
"}. c #CAB585",
"|. c #CDB585",
" X c #CDB788",
".X c #D6BC8B",
"XX c #D6BE8E",
"oX c #DEBF8C",
"OX c #E4BB80",
"+X c #EFBF80",
"@X c #DEC18E",
"#X c #E3C087",
"$X c #E9C085",
"%X c #E4C188",
"&X c #E3C68F",
"*X c #EFC98E",
"=X c #E4C790",
"-X c #E6C992",
";X c #E3CC98",
":X c #E4CD99",
">X c #E6CF9B",
",X c #EFD096",
"<X c #EFD8A1",
"1X c None",
/* pixels */
"1X1X1X1X1X1X1X1X1X1X1X1X1X1X1X1X1X1X1X1X1X1X1X1X1X1X1X1X1X1X1X1X1X1X1X1X1X1X1X1X1X1X1X1X1X1X1X1X1X1X1X1X1X1X1X1X1X1X1X1X1X1X1X1X",
"1X1X1X1X1X1X1X1X1X1X1X1X1X1X1X1X1X1X1X1X1X1X1X1X1X1X1X1X1X1X1X1X1X1X1X1X1X1X1X1X1X1X1X1X1X1X1X1X1X1X1X1X1X1X1X1X1X1X1X1X1X1X1X1X",
"1X1X1X1X1X1X1X1X1X1X1X1X1X1X1X1X1X1X1X1X1X1X1X1X1X1X1X1X1X1X1X1X1X1X1X1X1X1X1X1X1X1X1X1X1X1X1X1X1X1X1X1X1X1X.             . 1X1X",
"1X1X1X1X1X1X1X1X1X1X1X1X1X1X1X1X1X1X1X1X1X1X1X1X1X1X1X1X1X1X1X1X1X1X1X1X1X1X1X1X1X1X1X1X1X1X1X1X1X1X1X1X1X1X7 5 = 1 f a +   1X1X",
"1X1X1X1X1X1X1X1X1X1X1X1X1X1X1X1X1X1X1X1X1X1X1X1X1X1X1X1X1X1X1X1X1X1X1X1X1X1X1X1X1X1X1X1X1X1X1X1X1X1X1X1X. 7 Q ( D ~ l.d.a   1X1X",
"1X1X1X1X1X1X1X1X1X1X1X1X1X1X1X1X1X1X1X1X1X1X1X1X1X1X1X1X1X1X1X1X1X1X1X1X1X1X1X1X1X1X1X1X1X1X1X1X1X1X1X1X7 l ' 4.3.j.XXV.n   1X1X",
"1X1X1X1X1X1X1X1X1X1X1X1X1X1X1X1X1X1X1X1X1X1X1X1X1X1X1X1X1X1X1X1X1X1X1X1X1X1X1X1X1X1X1X1X1X1X1X1X1X1X. 7 Q ' ) 3.M.XX>XV.n   1X1X",
"1X1X1X1X1X1X1X1X1X1X1X1X1X1X1X1X1X1X1X1X1X1X1X1X1X1X1X1X1X1X1X1X1X1X1X1X1X1X1X1X1X1X1X1X1X1X1X1X1X1X7 l ' 4.3.j.XX<X<XV.n   1X1X",
"1X1X1X1X1X1X1X1X1X1X1X1X1X1X1X1X1X1X1X1X1X1X1X1X1X1X1X1X1X1X1X1X1X1X1X1X1X1X1X1X1X1X1X1X1X1X1X1X. 7 Q ' ) 3.M.XX>X<X<XV.n   1X1X",
"1X1X1X1X1X1X1X1X1X1X1X1X1X1X1X1X1X1X1X1X1X1X1X1X1X1X1X1X1X1X1X1X1X1X1X1X1X1X1X1X1X1X1X1X1X1X1X1X7 l ' 4.3.j.XX<X<X;X}.h.j . 1X1X",
"1X1X1X1X1X1X1X1X1X1X1X1X1X1X1X1X1X1X1X1X1X1X1X1X1X1X1X1X1X1X1X1X1X1X1X1X1X1X1X1X1X1X1X1X1X1X. 7 Q ' ) 3.M.XX>X<X<X}.=.j 1X1X1X1X",
"1X1X1X1X1X1X1X1X1X1X1X1X1X1X1X1X1X1X1X1X1X1X1X1X1X1X1X1X1X1X1X1X1X1X1X1X1X1X1X1X1X1X1X1X1X1XO r _ 4.3.j.XX<X<X;X}.h.j . 1X1X1X1X",
"1X1X1X1X1X1X1X1X1X1X1X1X1X1X1X1X1X1X1X1X1X1X1X1X1X1X1X1X1X1X1X1X1X1X1X1X1X1X1X1X1X1X1X1X. O t b W 3.M.XX>X<X<X}.=.j 1X1X1X1X1X1X",
"1X1X1X1X1X1X1X1X1X1X1X1X1X1X1X1X1X1X1X1X1X1X1X1X1X1X1X1X1X1X1X1X1X1X1X1X1X1X1X1X1X1X1X1XO 2 i G ` j.XX<X<X;X}.h.j . 1X1X1X1X1X1X",
"1X1X1X1X1X1X1X1X1X1X1X1X1X1X1X1X1X1X1X1X1X1X1X1X1X1X1X1X1X1X1X1X1X1X1X1X1X1X1X1X1X1X. O t i q L c.XX>X<X<X}.=.j 1X1X1X1X1X1X1X1X",
"1X1X1X1X1X1X1X1X1X1X1X1X1X1X1X1X1X1X1X1X1X1X1X1X1X1X1X1X1X1X1X1X1X1X1X1X1X1X1X1X1X1XO 2 i v Z >.|.<X<X;X}.h.j . 1X1X1X1X1X1X1X1X",
"1X1X1X1X1X1X1X1X1X1X1X1X1X1X1X1X1X1X1X1X1X1X1X1X1X1X1X1X1X1X1X1X1X1X1X1X1X1X1X1X. O t i q Z y.U.=X<X<X}.=.j 1X1X1X1X1X1X1X1X1X1X",
"1X1X1X1X1X1X1X1X1X1X1X1X1X1X1X1X1X1X1X1X1X1X1X1X1X1X1X1X1X1X1X1X1X1X1X1X1X1X1X1XO 2 i m K -.J.+X,X;X}.h.j . 1X1X1X1X1X1X1X1X1X1X",
"1X1X1X1X1X1X1X1X1X1X1X1X1X1X1X1X1X1X1X1X1X1X1X1X1X1X1X1X1X1X1X1X1X1X1X1X1X1X. O t i q K k.W.).+X,X}.=.j 1X1X1X1X1X1X1X1X1X1X1X1X",
"1X1X1X1X1X1X1X1X1X1X1X1X1X1X1X1X1X1X1X1X1X1X1X1X1X1X1X1X1X1X1X1X1X1X1X1X1X1XO 2 i m K 2. X,X+X/.R.h.j . 1X1X1X1X1X1X1X1X1X1X1X1X",
"1X1X1X1X1X1X1X1X1X1X1X1X1X1X1X1X1X1X1X1X1X1X1X1X1X1X1X1X1X1X1X1X1X1X1X1X. O t i q K k. X:X,X+XG.@.j 1X1X1X1X1X1X1X1X1X1X1X1X1X1X",
"1X1X1X1X1X1X1X1X1X1X1X1X1X1X1X1X1X1X1X1X1X1X1X1X1X1X1X1X1X1X1X1X1X1X1X1X7 r b G L 2. X<X<X&XP.r.s . 1X1X1X1X1X1X1X1X1X1X1X1X1X1X",
"1X1X1X1X1X1X1X1X1X1X1X1X1X1X1X1X1X1X1X1X1X1X1X1X1X1X1X1X1X1X1X1X1X1X. 7 Q _ W ` c. X:X<X<X[.$.s 1X1X1X1X1X1X1X1X1X1X1X1X1X1X1X1X",
"1X1X1X1X1X1X1X1X1X1X1X1X1X1X1X1X1X1X1X1X1X1X1X1X1X1X1X1X1X1X1X1X1X1X7 l ' 4.3.j.XX<X<X;X}.h.j . 1X1X1X1X1X1X1X1X1X1X1X1X1X1X1X1X",
"1X1X1X1X1X1X1X1X1X1X1X1X1X1X1X1X1X1X1X1X1X1X1X1X1X1X1X1X1X1X1X1X. 7 Q ' ) 3.M.XX>X<X<X}.=.j 1X1X1X1X1X1X1X1X1X1X1X1X1X1X1X1X1X1X",
"1X1X1X1X1X1X1X1X1X1X1X1X1X1X1X1X1X1X1X1X1X1X1X1X1X1X1X1X1X1X1X1X7 l ' 4.3.j.XX<X<X;X}.h.j . 1X1X1X1X1X1X1X1X1X1X1X1X1X1X1X1X1X1X",
"1X1X1X1X1X1X1X1X1X1X1X1X1X1X1X1X1X1X1X1X1X1X1X1X1X1X1X1X1X1X. 7 Q ' ) 3.M.XX>X<X<X}.=.j 1X1X1X1X1X1X1X1X1X1X1X1X1X1X1X1X1X1X1X1X",
"1X1X1X1X1X1X1X1X1X1X1X1X1X1X1X1X1X1X1X1X1X1X1X1X1X1X1X1X1X1X7 l ' 4.3.j.XX<X<X;X}.h.j . 1X1X1X1X1X1X1X1X1X1X1X1X1X1X1X1X1X1X1X1X",
"1X1X1X1X1X1X1X1X1X1X1X1X1X1X1X1X1X1X1X1X1X1X1X1X1X1X1X1X. 7 Q ' ) 3.M.XX>X<X<X}.=.j 1X1X1X1X1X1X1X1X1X1X1X1X1X1X1X1X1X1X1X1X1X1X",
"1X1X1X1X1X1X1X1X1X1X1X1X1X1X1X1X1X1X1X1X1X1X1X1X1X1X1X1XO r _ 4.3.j.XX<X<X;X}.h.j . 1X1X1X1X1X1X1X1X1X1X1X1X1X1X1X1X1X1X1X1X1X1X",
"1X1X1X1X1X1X1X1X1X1X1X1X1X1X1X1X1X1X1X1X1X1X1X1X1X1X. O t b W 3.M.XX>X<X<X}.=.j 1X1X1X1X1X1X1X1X1X1X1X1X1X1X1X1X1X1X1X1X1X1X1X1X",
"1X1X1X1X1X1X1X1X1X1X1X1X1X1X1X1X1X1X1X1X1X1X1X1X1X1XO 2 i F / g..X<X<X;X}.h.j . 1X1X1X1X1X1X1X1X1X1X1X1X1X1X1X1X1X1X1X1X1X1X1X1X",
"1X1X1X1X1X1X1X1X1X1X1X1X1X1X1X1X1X1X1X1X1X1X1X1X. O t i q S u.Q.-X<X<X}.=.j 1X1X1X1X1X1X1X1X1X1X1X1X1X1X1X1X1X1X1X1X1X1X1X1X1X1X",
"1X1X1X1X1X1X1X1X1X1X1X1X1X1X1X1X1X1X1X1X1X1X1X1XO 2 i m K -.J.+X,X;X}.h.j . 1X1X1X1X1X1X1X1X1X1X1X1X1X1X1X1X1X1X1X1X1X1X1X1X1X1X",
"1X1X1X1X1X1X1X1X1X1X.     . 1X1X1X1X1X1X1X1X. O t i q K k.W.).+X,X}.=.j 1X1X1X1X1X1X1X1X1X1X1X1X1X1X1X1X1X1X1X1X1X1X1X1X1X1X1X1X",
"1X1X1X1X1X1X1X1X1X1X  X - 7 1X1X1X1X1X1X1X1XO 2 i m K 1.{.*X]./.R.h.j . 1X1X1X1X1X1X1X1X1X1X1X1X1X1X1X1X1X1X1X1X1X1X1X1X1X1X1X1X",
"1X1X1X1X1X1X1X1X1X1X  - R Q 7 . 1X1X1X1X. O t i q K k.{.OX].`.G.@.j 1X1X1X1X1X1X1X1X1X1X1X1X1X1X1X1X1X1X1X1X1X1X1X1X1X1X1X1X1X1X",
"1X1X1X1X1X1X1X1X1X1X  8 ] <.P s 1X1X1X1XO 2 i v Z -.W.*X].~.F.r.s . 1X1X1X1X1X1X1X1X1X1X1X1X1X1X1X1X1X1X1X1X1X1X1X1X1X1X1X1X1X1X",
"1X1X1X1X1X1X1X1X1X1X  8 ] f.p.r.s     O t i q Z y.J.).].`.F. .s 1X1X1X1X1X1X1X1X1X1X1X1X1X1X1X1X1X1X1X1X1X1X1X1X1X1X1X1X1X1X1X1X",
"1X1X1X1X1X1X1X1X1X1X. 7 Q 6.K.a.T y @ $ u v Z %.H.(.(.~.F.r.s . 1X1X1X1X1X1X1X1X1X1X1X1X1X1X1X1X1X1X1X1X1X1X1X1X1X1X1X1X1X1X1X1X",
"1X1X1X1X1X1X1X1X1X1X1X1X7 M 6.z.a.,.d % 3 Z y.H.^.(.(.F. .s 1X1X1X1X1X1X1X1X1X1X1X1X1X1X1X1X1X1X1X1X1X1X1X1X1X1X1X1X1X1X1X1X1X1X",
"1X1X1X1X1X1X1X1X1X1X1X1X. 7 Q 6.K.v.+.A A %.H.(.(.~.F.r.s . 1X1X1X1X1X1X1X1X1X1X1X1X1X1X1X1X1X1X1X1X1X1X1X1X1X1X1X1X1X1X1X1X1X1X",
"1X1X1X1X1X1X1X1X1X1X1X1X1X1X7 M 6.x.v.Z.Z.H.^.(.(.F. .s 1X1X1X1X1X1X1X1X1X1X1X1X1X1X1X1X1X1X1X1X1X1X1X1X1X1X1X1X1X1X1X1X1X1X1X1X",
"1X1X1X1X1X1X1X1X1X1X1X1X1X1X  ; E 8.T.`.].'.!.Y.S.r.s . 1X1X1X1X1X1X1X1X1X1X1X1X1X1X1X1X1X1X1X1X1X1X1X1X1X1X1X1X1X1X1X1X1X1X1X1X",
"1X1X1X1X1X1X1X1X1X1X1X1X1X1X  o 9 ^ D.].*XoXm.7.I s 1X1X1X1X1X1X1X1X1X1X1X1X1X1X1X1X1X1X1X1X1X1X1X1X1X1X1X1X1X1X1X1X1X1X1X1X1X1X",
"1X1X1X1X1X1X1X1X1X1X1X1X1X1XO * 4 Z y.I.%X@XB.5.e   1X1X1X1X1X1X1X1X1X1X1X1X1X1X1X1X1X1X1X1X1X1X1X1X1X1X1X1X1X1X1X1X1X1X1X1X1X1X",
"1X1X1X1X1X1X1X1X1X1X1X1X. O t x c v Z &.I.$X@Xn.g   1X1X1X1X1X1X1X1X1X1X1X1X1X1X1X1X1X1X1X1X1X1X1X1X1X1X1X1X1X1X1X1X1X1X1X1X1X1X",
"1X1X1X1X1X1X1X1X1X1X1X1XO 0 C U U V 6 d ,.L.#XE.*.j 1X1X1X1X1X1X1X1X1X1X1X1X1X1X1X1X1X1X1X1X1X1X1X1X1X1X1X1X1X1X1X1X1X1X1X1X1X1X",
"1X1X1X1X1X1X1X1X1X1X. O t C } X.X.J < @ y ..L._.E.h.j . 1X1X1X1X1X1X1X1X1X1X1X1X1X1X1X1X1X1X1X1X1X1X1X1X1X1X1X1X1X1X1X1X1X1X1X1X",
"1X1X1X1X1X1X1X1X1X1XO 0 C { o.O.| N >     s r.L.#XE.*.j 1X1X1X1X1X1X1X1X1X1X1X1X1X1X1X1X1X1X1X1X1X1X1X1X1X1X1X1X1X1X1X1X1X1X1X1X",
"1X1X1X1X1X1X1X1X. O t C } o.9.| p > 1X1X1X1Xs ..L._.E.h.j . 1X1X1X1X1X1X1X1X1X1X1X1X1X1X1X1X1X1X1X1X1X1X1X1X1X1X1X1X1X1X1X1X1X1X",
"1X1X1X1X1X1X1X1XO 0 C { o.O.| N > . 1X1X1X1X. s r.b.N.d.a   1X1X1X1X1X1X1X1X1X1X1X1X1X1X1X1X1X1X1X1X1X1X1X1X1X1X1X1X1X1X1X1X1X1X",
"1X1X1X1X1X1X. O t C } o.9.| p > 1X1X1X1X1X1X1X1Xs h k a +   1X1X1X1X1X1X1X1X1X1X1X1X1X1X1X1X1X1X1X1X1X1X1X1X1X1X1X1X1X1X1X1X1X1X",
"1X1X1X1X1X1XO 0 C { o.O.| N > . 1X1X1X1X1X1X1X1X.         . 1X1X1X1X1X1X1X1X1X1X1X1X1X1X1X1X1X1X1X1X1X1X1X1X1X1X1X1X1X1X1X1X1X1X",
"1X1X1X1X. O t C } o.9.| p > 1X1X1X1X1X1X1X1X1X1X1X1X1X1X1X1X1X1X1X1X1X1X1X1X1X1X1X1X1X1X1X1X1X1X1X1X1X1X1X1X1X1X1X1X1X1X1X1X1X1X",
"1X1X1X1XO w Y :.;.0.0.[ ,   1X1X1X1X1X1X1X1X1X1X1X1X1X1X1X1X1X1X1X1X1X1X1X1X1X1X1X1X1X1X1X1X1X1X1X1X1X1X1X1X1X1X1X1X1X1X1X1X1X1X",
"1X1X. O t Y i.C.e.0.0.[ ,   1X1X1X1X1X1X1X1X1X1X1X1X1X1X1X1X1X1X1X1X1X1X1X1X1X1X1X1X1X1X1X1X1X1X1X1X1X1X1X1X1X1X1X1X1X1X1X1X1X1X",
"1X1X  # z #.s.A.t.O.| N > . 1X1X1X1X1X1X1X1X1X1X1X1X1X1X1X1X1X1X1X1X1X1X1X1X1X1X1X1X1X1X1X1X1X1X1X1X1X1X1X1X1X1X1X1X1X1X1X1X1X1X",
"1X1X  # z ! w.t.q.| p > 1X1X1X1X1X1X1X1X1X1X1X1X1X1X1X1X1X1X1X1X1X1X1X1X1X1X1X1X1X1X1X1X1X1X1X1X1X1X1X1X1X1X1X1X1X1X1X1X1X1X1X1X",
"1X1X. O t B H [ [ N > . 1X1X1X1X1X1X1X1X1X1X1X1X1X1X1X1X1X1X1X1X1X1X1X1X1X1X1X1X1X1X1X1X1X1X1X1X1X1X1X1X1X1X1X1X1X1X1X1X1X1X1X1X",
"1X1X1X1XO & : , , > 1X1X1X1X1X1X1X1X1X1X1X1X1X1X1X1X1X1X1X1X1X1X1X1X1X1X1X1X1X1X1X1X1X1X1X1X1X1X1X1X1X1X1X1X1X1X1X1X1X1X1X1X1X1X",
"1X1X1X1X.         . 1X1X1X1X1X1X1X1X1X1X1X1X1X1X1X1X1X1X1X1X1X1X1X1X1X1X1X1X1X1X1X1X1X1X1X1X1X1X1X1X1X1X1X1X1X1X1X1X1X1X1X1X1X1X",
"1X1X1X1X1X1X1X1X1X1X1X1X1X1X1X1X1X1X1X1X1X1X1X1X1X1X1X1X1X1X1X1X1X1X1X1X1X1X1X1X1X1X1X1X1X1X1X1X1X1X1X1X1X1X1X1X1X1X1X1X1X1X1X1X",
"1X1X1X1X1X1X1X1X1X1X1X1X1X1X1X1X1X1X1X1X1X1X1X1X1X1X1X1X1X1X1X1X1X1X1X1X1X1X1X1X1X1X1X1X1X1X1X1X1X1X1X1X1X1X1X1X1X1X1X1X1X1X1X1X"
};
