/* XPM */
static char *c1f8ca917f2d4fe5e6e4c5cc96ccd5falvlqJDUvZf6uDDeZ[] = {
/* columns rows colors chars-per-pixel */
"32 32 11 1 ",
"  c None",
". c #17111A",
"X c #372538",
"o c #5A2F39",
"O c #7B363A",
"+ c #9D5246",
"@ c #BB867E",
"# c #7884AB",
"$ c #B2BCC2",
"% c #DDE2E4",
"& c white",
/* pixels */
"                                ",
"                                ",
"                                ",
"                                ",
"                         ..     ",
"                        .%#.    ",
"                       .%#.     ",
"                      .%#.      ",
"                     .&#.       ",
"                    .&#.        ",
"                   .%#.         ",
"                  .$#.          ",
"                 .$#.           ",
"                .$#.            ",
"               .$#.             ",
"              .$#.              ",
"             .$#.               ",
"            .$#.                ",
"           .$#.                 ",
"       .. .$#.                  ",
"      .@@.$#.                   ",
"      .+OX#.                    ",
"       .OOX.                    ",
"      .@XoOo.                   ",
"     .@Oo.oo.                   ",
"    .+Oo. ..                    ",
"    .oo.                        ",
"     ..                         ",
"                                ",
"                                ",
"                                ",
"                                "
};
