/* XPM */
static char *result[] = {
/* columns rows colors chars-per-pixel */
"64 64 213 2 ",
"   c #020102",
".  c #0B0505",
"X  c #060A02",
"o  c #0C0A03",
"O  c #0F0708",
"+  c #030A09",
"@  c #0E0D0E",
"#  c #100606",
"$  c #130A05",
"%  c #1A0C06",
"&  c #120708",
"*  c #140A09",
"=  c #1B0C0A",
"-  c #0A1604",
";  c #0C1A03",
":  c #0F110E",
">  c #171607",
",  c #141B06",
"<  c #1D110B",
"1  c #120F11",
"2  c #180F12",
"3  c #0D1210",
"4  c #131313",
"5  c #1A1312",
"6  c #1D1815",
"7  c #1C1C1C",
"8  c #230E0B",
"9  c #231B05",
"0  c #2D1D04",
"q  c #24130D",
"w  c #2C130C",
"e  c #27180B",
"r  c #2B1A0E",
"t  c #321D0A",
"y  c #3D1E0D",
"u  c #231414",
"i  c #2D1614",
"p  c #251816",
"a  c #2D1B12",
"s  c #251718",
"d  c #2B1B1A",
"f  c #331915",
"g  c #341A17",
"h  c #3A1C13",
"j  c #3B1D18",
"k  c #0F2702",
"l  c #1A2303",
"z  c #172907",
"x  c #163402",
"c  c #173805",
"v  c #2A2405",
"b  c #262909",
"n  c #372608",
"m  c #2C3B02",
"M  c #243B0A",
"N  c #353B02",
"B  c #2F201E",
"V  c #3C2215",
"C  c #382417",
"Z  c #3D231A",
"A  c #222222",
"S  c #2C2921",
"D  c #2E2E2D",
"F  c #401F0F",
"G  c #4D3604",
"H  c #46330B",
"J  c #432314",
"K  c #4B2314",
"L  c #462A17",
"P  c #4C2A16",
"I  c #43231A",
"U  c #4B261C",
"Y  c #452A1C",
"T  c #4B2A1C",
"R  c #522715",
"E  c #552B16",
"W  c #592A14",
"Q  c #522719",
"!  c #532C1C",
"~  c #592E1B",
"^  c #4D331D",
"/  c #513415",
"(  c #5F3A14",
")  c #55311C",
"_  c #5B321C",
"`  c #593A19",
"'  c #63341B",
"]  c #67381A",
"[  c #653C1D",
"{  c #432D20",
"}  c #4D2F21",
"|  c #532F21",
" . c #582E20",
".. c #4F3224",
"X. c #533121",
"o. c #5D3422",
"O. c #5F3827",
"+. c #553C29",
"@. c #433D33",
"#. c #623724",
"$. c #643A22",
"%. c #693D24",
"&. c #653D29",
"*. c #6C3E2C",
"=. c #6B3833",
"-. c #1D4203",
";. c #1F5301",
":. c #234302",
">. c #264D07",
",. c #2C4D03",
"<. c #324B05",
"1. c #275204",
"2. c #295D04",
"3. c #3B5806",
"4. c #395E18",
"5. c #386904",
"6. c #327305",
"7. c #31730C",
"8. c #2D6210",
"9. c #37522B",
"0. c #236032",
"q. c #434402",
"w. c #55470C",
"e. c #4E5704",
"r. c #575A06",
"t. c #785608",
"y. c #6D4915",
"u. c #72451F",
"i. c #775314",
"p. c #4A6F04",
"a. c #437902",
"s. c #446714",
"d. c #437217",
"f. c #4B7D19",
"g. c #63750C",
"h. c #7B6B10",
"j. c #4B4C2B",
"k. c #5E4121",
"l. c #664323",
"z. c #6C4224",
"x. c #66462A",
"c. c #6C422B",
"v. c #734323",
"b. c #714925",
"n. c #7D4B24",
"m. c #73452A",
"M. c #754C2A",
"N. c #7B4B2A",
"B. c #7B5228",
"V. c #6F4833",
"C. c #794D32",
"Z. c #665033",
"A. c #7C5535",
"S. c #7A5239",
"D. c #786A34",
"F. c #484744",
"G. c #777D40",
"H. c #844F24",
"J. c #814F2B",
"K. c #865727",
"L. c #83532C",
"P. c #8A562E",
"I. c #8D5A2D",
"U. c #915D20",
"Y. c #844F31",
"T. c #825533",
"R. c #8A5433",
"E. c #835932",
"W. c #8B5D34",
"Q. c #865B3E",
"!. c #8B5D38",
"~. c #83632B",
"^. c #8F6129",
"/. c #806D2A",
"(. c #986424",
"). c #92642B",
"_. c #8C7E2C",
"`. c #8E6336",
"'. c #966034",
"]. c #996135",
"[. c #976934",
"{. c #98663A",
"}. c #98693C",
"|. c #9D7231",
" X c #976B4A",
".X c #90784D",
"XX c #A27342",
"oX c #A57650",
"OX c #AA7A54",
"+X c #2F8506",
"@X c #3B8905",
"#X c #329D1E",
"$X c #4F8B02",
"%X c #52840E",
"&X c #489308",
"*X c #559903",
"=X c #458614",
"-X c #5B9113",
";X c #688005",
":X c #56AA0A",
">X c #78B71E",
",X c #53C113",
"<X c #8A9B07",
"1X c #8D812B",
"2X c #B58955",
"3X c #B38E63",
"4X c #C3974F",
"5X c #CC9D55",
"6X c #BCA285",
"7X c #BEA88C",
"8X c #D4B18F",
"9X c #C8AF92",
"0X c #E2CB9C",
/* pixels */
"A A A A A A A A A A A A A A A A A A A A A A A A A A A A A A A A A A A A A A A A A A A A A A A A A A A A A A A A A A A A A A A A ",
"A A A A A A A A A A A A A A A A A A A A A A A A A A A A A A A .   A A A A A A A A A A A A A A A A A A A A A A A A A A A A A A A ",
"A A A A A A A A A A A A A A A A A A A A A A A A A A A A A     {.XX    A A A A A A A A A A A A A A A A A A A A A A A A A A A A A ",
"A A A A A A A A A A A A A A A A A A A A A A A A A A @ ` x.{.R.C.C.E.P.k.+.@ A A A A A A A A A A A A A A A A A A A A A A A A A A ",
"A A A A A A A A A A A A A A A A A A A A A A A       I.[.P.N.O.O.O.X.L.I.I.E.    A A A A A A A A A A A A A A A A A A A A A A A A ",
"A A A A A A A A A A A A A A A A A A A A 4 4 5 N.T P f o.z.%.| C C T X.m.b.j $.P n f 4 4 A A A A A A A A A A A A A A A A A A A A ",
"A A A A A A A A A A A A A A A A B A *   W.).u.    a c.T K           8 Z I M.X.  f v.N.R   4 A A A A A A A A A A A A A A A A A A ",
"A A A A A A A A A A A A A A 7 7 7 > +.u.  _ L.~ % a +.j # . * S B   .     z.V > O.N.P   M.! % 7 7 7 A A A A A A A A A A A A A A ",
"A A A A A A A A A A A A 7     W [   ! w w   W v.    N.  +.= O.7X9X$.Y /     *   K f   = Y E   %.)     A A A A A A A A A A A A A ",
"A A A A A A A A A A A   o   P v.    w ! w = R     * L.j +.f O.9X6XS.+ ) I ^.*     8 8   X.a     %.E       A A A A A A A A A A A ",
"A A A A A A A A .   %.V 5 H.K ] H.  W R           A.8XN. X3X+ Z oXV.OX X{.8XN.2         y !   N.'.= = h q v.. 4 A A A A A A A A ",
"A A A A A 7     (.|.      I   W z.          h f   C OXH. X3Xd 3X8Xj 5Xm.XXOXC 5 w h           ' J     X *   I.Z     A A A A A A ",
"A A A A A 6 n N.%   E Y Z $.. . %       a Z X.&.a w Z k.L XXI S.} z.XX} X.Z d I %.$.K u             R U P T   L W.T 7 A A A A A ",
"A A A A A 7   M.l.    _ $.w         I | O.O.O.O.$.Z K.g 6 g 4X5X0X2XQ g d %.{ z.%.%.%.$.$.U         . ~ ~     m.[.= 7 A A A A A ",
"A A A A A A @ J ] j         $ w I #.T I O.O.O.Z } T i g g = ^ ^ Z.Y 6 f f ) X.X.Z $.%.$.! T o.U f 8         f $.v.1 A A A A A A ",
"A A A A A A A       w _ v.%.K %.O.o.#.o.= T #.X.s ! $.$.$.! W U T I j $.$.$.d B ! I | i #.#.#.~ _ ! ( y.H K E     A A A A A A A ",
"A A A A A A A A . +                                             .                                           . . A A A A A A A A ",
"A A A A A A A A A     m.W._     h.      [ ^.o.      N.R     H.H.[ $.    ' !.m.Q   l.z.!       ,X  t.  M.z.w   4 A A A A A A A A ",
"A A A A A A A A 4   $.$.W.#.o.O.    u.f $.$.I.H.  N.L.$.o.. X.U.#.[ L.%.'.'.P.'.  !.m.#.y w.,X,X,X  c.M.N.*.w & A A A A A A A A ",
"A A A A A A A A . ! j T $.`.o..   '.o . T X.O.o.m.c.m.5 o.o.. o.o.o.v.i j j j   X.B.E.[ . $       i. .) N.!.[ $ A A A A A A A A ",
"A A A A A A A A q o.1 u o.O.      ].% w   = q X.c.c.N.j a q       ! U * g j j   ) m.L   X.w j I e     Y b.!.L.= A A A A A A A A ",
"A A A A A A A A < q $.a     r.r.H w     a   & w T j j * O .           O *     u K % * ..X.a q $.u.P   < T *.< 5 A A A A A A A A ",
"A A A A A A A A A   v.  m.m.#       8 Y m.=   w f                                   O.m.X.a . . . $   @XY I   A A A A A A A A A ",
"A A A A A A A A A A   ) L.n.m.%.Q % f K *.C.a               .                   e ! ! U X.X.  %.J #.i 1.&.  A A 4 A A A A A A A ",
"A A A A A A A x A A = p       '     y | !.).B.                            .     w h u o.#.$.o.!   . =.  ~.  A A     A A A A A A ",
"A A A A A A A - *   r.N 9 > #     f < U m.K.0.                                    f u o.O.O. .    . ~._.>X  A @   . A A A A A A ",
"A A A A A A A   A A     . ! !       j j X.x.                                  X   p f O.O.#.      !     a %.B     A A A A A A A ",
"A A A A A A A   A A G     T Q J     q j T Z               +                       p j X.O.I     C )     a !.  % G.A A A A A A A ",
"A A A A A 7   A A . $.r I T o.h     ) . f .                                       . g j   ^     Z O.o.K v !.  a c.A A 7 7 A A A ",
"A A A A A   r.  A    Xa Z O.j       c.= h # .                       +               g   c.T.  w V < m.' B W.  i '.A   + A A A A ",
"A A A A . ;   b.V k.S.q j N.j     l.M.o.                                      +     .   } V.[.* # i m.w q !   f `.<.>.O A A A A ",
"A A A A . X   m.a  XU.= d I.I &   O.O.%.j         X     +                             j I #.#.= $ T ].. $ j   c.`.  o A A A A A ",
"A A A A A 7 / ~ C V.  q p I.j & q &.$.&.q             X     +                 +       p I O.L.Q . T ].m.Z   m.E.~   7 A A A A A ",
"A A A A A A   v.U T   . L.I.!   U L.m.#.                                                I $.`.I   X.].!.Z u U [ + 3XA A A A A A ",
"A A A A A A A T U T C.  N.m.o.# * < l.{                                                 a g J # # #.A.Y.h   j 5 7 A A A A A A A ",
"A A A A A A A   8 ) I = m.R.%.& j E.l.      X                     X                       I o.U # m.N.%.< $.  F.A A A A A A A A ",
"A A A A A A A A 8 ) I = M.R.. & o.E.&.              +                       X             I L.I * . N.! = $.  4 A A A A A A A A ",
"A A A A A A A A 8 L.  Y #.P.. * I W.L g                                             .   f j I.I * o H.  ! (.  A A A A A A A A A ",
"A A A A A A A A 8 ' W.  #.I.# * I.%.! j                   X           +                 j ! %.W.* # H.X ! i.  A A A A A A A A A ",
"A A A A A A A A 7   ] o o.R.. * L.A.o.j     +                                           j | c.I.* . U . J ' j.A A A A A A A A A ",
"A A A A A A A A A A   8 Q %.*.* L.!.!                                               X     o.m.W.~   I $.    A A A A A A A A A A ",
"A A A A A A A A A 4 O.! f w   e o.#.J           X                 X         .             C O.O.r   I c.o.  4 A A A A A A A A A ",
"A A A A A A A A A   o.O.) w   }.N.U q                       +                             w ! I.[.  R %.L.U   A A A A A A A A A ",
"A A A A A A A A 4   m.%.    q !.v.v.r =                                                 : 8 ! m.P.J.  . L.U   A A A A A A A A A ",
"A A A A A A A A 4   Y L.    T.Q.%.g . *         +                 +     X     +           % f L L.i     L.X.  A A A A A A A A A ",
"A A A A A A A A 4 . f %.    L `.m.g .                   +                       +         % y [ R.u     &.!   A A A A A A A A A ",
"A A A A . A . =X&X:X    X   $.f .   *       +                 .                           =   . F %.  X q j   A + A A + + A A A ",
"A A A   p.,   3.      0 .   %.o.    @ .                                                   =     [ %.  X     i.  &X  A + =XA A A ",
"A A A l l 7 A e . e.g.H     | { L   8                           +                         g   K R ! I . -X  s.j.. z 7 z 3 3 A A ",
"A A   A A A A $ c     b I   #.#.j   I             +                     +                 I   j ] ! Y Y M   4.@.    A + + + A A ",
"A A b 4 3 A     k     n j u g #.j   I                                         .           U   L [ a w U b   3.  .X1X@ 4   9.-.-.",
"A @     .X      H 6.    u     u.j   I                 .                                   Y   ) _     K i   n   m   g.;X  #X  =X",
"4 k x     %X    q   # n.i.  9 H j   j                                             .       K   ! 8.    b.z.) v   n , ,     + @ A ",
"          , f.  8 w #.|.I.  w.< I   g                                                     w   T $ d.  M.E.X.      d.    *X  A A ",
"A 3 X .   > f.    n ) |.    E < w   g                                 X                   w   Y = d.  . E.X.      d.  a.a.  A A ",
". <.X   w.~.. G   F [.0 . ` > .     2 g     = = j d i i d f d f i d i i i f i d * u     y %     h o r.  e `.j   0 X 3.. 7 A A A ",
"+X.   A   M.(   % ] I   t   t.O       f   = = j j g f d g | g } } g ! I f d f g g 5 *   f           :.X . . E.=   G - A A A A A ",
"k @ A A A 4 y   T r.  0 <   9 H ` J.J   } d T ! | | T X.X.T | X.X.X.X.X.X.X.U U K f i Z   J '.A.  n . j a /.C c     F.A A A A A ",
"A A A A A 7 h   e.<X    X $X- N R.H.      f             a U j g g d X.f             w 8     N.[.  X @XX   | D.6.    7 7 A A A A ",
"A A A A A A   m 6.  M <.,.  q.o                 = #         = a i =         .                         1.,.-.  5.2.  D B A A A A ",
"A A A A A A   q.;.  3.      e.    j j f                                                 I L I     7..     e.  2.2.  A A A A A A ",
"A A A A A A   , M l   ; 5.3.N   w I j   . U X.p ! I X.! h T T C ! T T C X.X.C X.) K K % f  .O.. ,.N ;.6.;   ; z z   A A A A A A ",
"A A A A A A A m 2.2.x x   :.  a * I 8   f X.X.X.X.X.X.X.f T X.X.) _ T f X.X.| X.) ) ! f   8 I I N   m   m :.:.:.,.A A A A A A A ",
"A A A A A A A                         y o.T X.} P ) T ! ! ! T ! P E T T } | T ! ! ! ! K W                         A A A A A A A "
};
