/* XPM */
static char *result[] = {
/* columns rows colors chars-per-pixel */
"32 32 134 2 ",
"   c #020202",
".  c #0C0605",
"X  c #0D0904",
"o  c #080708",
"O  c #030A09",
"+  c #0C0C0C",
"@  c #130705",
"#  c #120A05",
"$  c #180C07",
"%  c #160C09",
"&  c #1A0E0B",
"*  c #0D1405",
"=  c #0D110E",
"-  c #161404",
";  c #1E1E01",
":  c #1E110C",
">  c #140E11",
",  c #151415",
"<  c #191713",
"1  c #181C17",
"2  c #181718",
"3  c #1B1B1B",
"4  c #210E0E",
"5  c #251703",
"6  c #22130D",
"7  c #2D120B",
"8  c #26180C",
"9  c #3D1D0E",
"0  c #241414",
"q  c #2C1512",
"w  c #2C1B11",
"e  c #251718",
"r  c #2D1F1E",
"t  c #341712",
"y  c #321916",
"u  c #391E14",
"i  c #3B1C18",
"p  c #162408",
"a  c #1C2B12",
"s  c #202103",
"d  c #2D2A0F",
"f  c #362B05",
"g  c #37230E",
"h  c #2D3A02",
"j  c #28360A",
"k  c #2B2013",
"l  c #3C2214",
"z  c #3E2319",
"x  c #222222",
"c  c #292623",
"v  c #2D2D2B",
"b  c #452211",
"n  c #4B2012",
"m  c #472911",
"M  c #43221A",
"N  c #4B2A1D",
"B  c #522715",
"V  c #512C16",
"C  c #5C2B14",
"Z  c #51261A",
"A  c #542D1D",
"S  c #4E311B",
"D  c #56311B",
"F  c #5C331E",
"G  c #5F3A1E",
"H  c #603E1F",
"J  c #4E2C23",
"K  c #533121",
"L  c #5D3421",
"P  c #5F3927",
"I  c #653922",
"U  c #693D25",
"Y  c #60362A",
"T  c #653D29",
"R  c #6A3E28",
"E  c #324505",
"W  c #285D03",
"Q  c #315303",
"!  c #356002",
"~  c #2A7201",
"^  c #36710A",
"/  c #434402",
"(  c #56430F",
")  c #4D5503",
"_  c #435A10",
"`  c #63431C",
"'  c #764B18",
"]  c #735810",
"[  c #447B02",
"{  c #587A0A",
"}  c #7B6B10",
"|  c #544223",
" . c #604226",
".. c #6E4329",
"X. c #744322",
"o. c #7B4726",
"O. c #794923",
"+. c #74462B",
"@. c #7B4B29",
"#. c #7C5027",
"$. c #6B4532",
"%. c #674938",
"&. c #764E33",
"*. c #7A4F33",
"=. c #5D5D58",
"-. c #7E5A41",
";. c #6F6342",
":. c #866009",
">. c #8F6E1A",
",. c #844F24",
"<. c #855024",
"1. c #83522C",
"2. c #89572D",
"3. c #875929",
"4. c #8D5A2D",
"5. c #815534",
"6. c #8A5334",
"7. c #835A32",
"8. c #885E34",
"9. c #8B5D38",
"0. c #925C32",
"q. c #A15B2A",
"w. c #936A2D",
"e. c #98742E",
"r. c #996135",
"t. c #976935",
"y. c #A17040",
"u. c #A27C4B",
"i. c #508B11",
"p. c #54A60A",
"a. c #659A25",
"s. c #53C113",
"d. c #D4B18F",
"f. c #EDDCAE",
/* pixels */
"x x x x x x x x x x x x x x x x x x x x x x x x x x x x x x x x ",
"x x x x x x x x x x x x x x x   x x x x x x x x x x x x x x x x ",
"x x x x x x x x x x k c   y.@.Y 5.t.  x x x x x x x x x x x x x ",
"x x x x x x x x x   @.7 J K K   N K M 4 1.  x x x x x x x x x x ",
"x x x x x     t.. B 1.U     J f.      X.L     q.    x x x x x x ",
"x x x ,.1.D '   n 7   I d.-.w 9.$.X.d.m   @ i   I X.0.,.x x x x ",
"4.`   I M   Z     7 I   = y 4 %.q P % > U 9         L A   @.y k ",
", F F       t L Y Y k I q y @.u.+.y z U N I I K i 7     D *.1 x ",
"x <                       o       o                       3 x x ",
"x x . I 8.A X w.A X.O.U @.K L X.#.F r.0.  +.A ( s.$ +.K 7 3 x x ",
"x < F e T X     . q K ..M y X X A # i i A I #   u # A ..1.3 x x ",
"x x   $ G - $   N   7 o                 # N +.  : 5 ! N   x x x ",
"x a 3 K w 6 $ 9 L 3.                    t 0 L J F :   e.x o 2 x ",
"x o < s ] A   6 M ..                      q P P   l E P x   1 x ",
"> x + O.N L   S y                         y %  .  P N 9.  | x 2 ",
"* G | I 4.i   7.6                           M *.@ q o.+.  7.^ , ",
"k A &.  2.i 8 Y y                           6 Y B N 0.  +.I + x ",
"x l M   R H & A #     O                     # y : I 8.  7 v x x ",
"x 2 I K <.  F 7.6                           7 i M   X.A . x x x ",
"x 2 V 8 4.  8.I                       O       ..4.  o.' c x x x ",
"x x 3 & X.P @.K                               U 5.  K @ 3 x x x ",
"x x . P     o.K                               A 2.&   1.  x x x ",
"x c . @.  7...            O             O       N 0   1.  x x x ",
", i.p.  :.U                                       X.} D . + x   ",
"x 8 {     T u 4                               y i A M a._ < < O ",
",     X M   i M                               N D   N   f ;.d   ",
"j     X.M >.M y         O                     7 N   H A     p   ",
";   b w.  O 7 y                               7 t .   7.i 5 p [ ",
"  $ .     :.  ,.  q i K w K K K K K K y y q   6.    g   7.    x ",
", Q   ,   h           t     i P r     4                   W =.x ",
", * -   [ ) 7 i   K > y e M D z D l : e D C   Y   / ~     * 2 x ",
"x               N K K D D A D D D K K K D A B               x x "
};
