/* XPM */
static char *result[] = {
/* columns rows colors chars-per-pixel */
"32 32 117 2 ",
"   c #090D62",
".  c #02066E",
"X  c #050B6E",
"o  c #080C6C",
"O  c #030A74",
"+  c #02067B",
"@  c #030C7C",
"#  c #090E7B",
"$  c #0C1072",
"%  c #020782",
"&  c #090E80",
"*  c #020789",
"=  c #030B8B",
"-  c #080C89",
";  c #041184",
":  c #0D1283",
">  c #05138D",
",  c #050D94",
"<  c #02079E",
"1  c #040B9C",
"2  c #080E98",
"3  c #051294",
"4  c #0C1293",
"5  c #06159B",
"6  c #061A9C",
"7  c #10169A",
"8  c #0307A1",
"9  c #040CA3",
"0  c #090EA7",
"q  c #050BAC",
"w  c #0615A4",
"e  c #0B12A2",
"r  c #0619A5",
"t  c #0514AB",
"y  c #0C17A9",
"u  c #0719AB",
"i  c #0819AA",
"p  c #040EB5",
"a  c #040CBA",
"s  c #0512B3",
"d  c #0B15B5",
"f  c #071AB4",
"g  c #091CB2",
"h  c #0514BC",
"j  c #0C12BC",
"k  c #071ABE",
"l  c #1117B2",
"z  c #1017BD",
"x  c #121AB9",
"c  c #0A22BC",
"v  c #050DC5",
"b  c #0307C8",
"n  c #050ECC",
"m  c #090DCC",
"M  c #0614C5",
"N  c #0D16C7",
"B  c #071AC5",
"V  c #091EC5",
"C  c #0614CB",
"Z  c #0A16CB",
"A  c #071BCA",
"S  c #091BCA",
"D  c #1017CC",
"F  c #131BCD",
"G  c #050DD4",
"H  c #060CDB",
"J  c #090FDB",
"K  c #0613D3",
"L  c #0A15D3",
"P  c #071BD2",
"I  c #091DD5",
"U  c #0613DC",
"Y  c #0A16DA",
"T  c #0719DB",
"R  c #0A1BDC",
"E  c #121BD5",
"W  c #121BDD",
"Q  c #0A25CD",
"!  c #0721D3",
"~  c #0B22D2",
"^  c #0B2DD6",
"/  c #0A23DC",
"(  c #0C2BDD",
")  c #050AEA",
"_  c #0615E4",
"`  c #0A14E4",
"'  c #0719E4",
"]  c #0A1AE3",
"[  c #0615EC",
"{  c #0A15EB",
"}  c #061AED",
"|  c #0A1BEC",
" . c #121CE4",
".. c #121CEC",
"X. c #0615F3",
"o. c #0A15F4",
"O. c #071AF5",
"+. c #0A1CF4",
"@. c #0615FA",
"#. c #0917FA",
"$. c #071AFA",
"%. c #0B1BFB",
"&. c #111CF4",
"*. c #111DFA",
"=. c #0B23E4",
"-. c #0D29E3",
";. c #0B23EC",
":. c #0D2BEB",
">. c #1420EB",
",. c #0B23F4",
"<. c #0D2BF3",
"1. c #0B22FA",
"2. c #0C2AFB",
"3. c #1222F5",
"4. c #1222FA",
"5. c #0E30F4",
"6. c #0E32F9",
/* pixels */
"$.X.*.*.+.}  . .;.| Y K #.....&.H U ' ' U o.{ ,.2.+.} { @.[ X.O.",
"$.%.*.@.1.X.>.3.+.{ Y { &.&.&.#._ ` ' | { #.[ 2.2.O.X.@.@.X.$.%.",
"#.*.*.$.O.&.3.+.+.` ` +.*.&.*.o.[ } O.O.#.X.1.2.O.$.X.#.@.$.$.%.",
"%.*.%.%.$.3.3.+.+.{ +.*.*.*.*.{ +.O.O.X.%.$.2.1.$.@.#.%.@.$.$.$.",
"%.*.$.%.%.4.3.O.X.&.+.*.%.4.O.$.O.O.#.#.#.+.2.%.%.#.%.#.@.$.$.$.",
"*.%.$.$.4.4.O.#.+.+.4.%.*.1.$.$.$.$.@.#.@.1.1.$.@.%.%.@.$.$.1.$.",
"*.$.1.%.4.+.#.X.*.1.%.%.4.%.$.$.$.#.X.$.X.1.%.%.#.%.%.@.$.$.1.%.",
"O.%.1.4.3.+.#.+.1.4.+.1.1.%.$.$.#.X.@.O.+.1.%.%.%.*.$.O.$.1.%.O.",
"+.1.1.4.&.} X.,.1.+.,.*.1.$.$.O.X.X.O.O.+.#.%.*.*.*.X.X.+.,.O.+.",
"+.1.,.,.{ X.{ ,.+.+.+.+.$.1.,.} X.O.%.} +.%.*.&.&.*.[ X.1.1.{ { ",
",.1.,.| ` [ | ,.| | | 1.1.1.O.} } +.+.[ } *.&.&.&.{ [ } 1.| ` _ ",
"2.3.=.R ` U ;.;.] ] +.,.,.,.[ [ | 1.} [ o.&.&...&.` _ +.,.U ` ' ",
"<.=.R C ` K -.=.R ] +.+.,.;._ _ 1.,.' _ *.......#.T ' | =.U K ;.",
":.R Z m C P =.P P ' +.+.;.} U } <.| U _ &. . .&.G K ] =.C U C <.",
"/ S p C p P ~ B B } +.;.;.U K ;.<.] n #.W W W #.C Z R ! C K ! <.",
"V d 0 v f Q B h C ' | ;.' K U <.;.L n ] E W  .K M S I h G q -.-.",
"f 5 p 8 f Q f s _ ' ;./ K M =.6./ M ` D F W o.p h V B q U s :.~ ",
"w * a > f f t t _ ' T I M M <.<.A a { x D Y G q f V t m q Q -.c ",
"= 1 1 5 f r w M U ] A C a P 6.=.h v z l D { 1 t g f , H , ( Q r ",
". q + w r 5 3 U ] A k p t :.<.V 0 { 7 l G _ 3 w i 5 a b u ^ c 3 ",
"* < @ 5 5 5 w K T B M t h 6.-.t < j 4 j J 1 3 5 r @ H * ^ Q 6 ; ",
"< + > 5 3 w U Y T Q s 1 ^ 6.Q 5 G : 4 m ) @ > 5 3 8 H > ^ g > X ",
"8 = M B B h U ' A h 0 w 5.:.r * m $ 0 G q > > 3 O G 9 c ~ 6 ; . ",
"v h Z M M K Y I A t , V <.Q > q # # a ) O & > > * ) O ^ c t s v ",
"p M A C h Y ` B k 0 3 =.:.i @ H   , v b @ ; > O b G ~ :.! M p G ",
"a Z C A C Y Y S t 2 g :.~ > % 1 o q H + & t B a X.a -.=.A h v n ",
"C K I C ` Y Z S q 4 I -.g & G o - m { h M M M H X.C :.R M a G v ",
"K L Y C  .] P M e y -.( 5 2 ` l E ` n M M M a ) G ] ;.I C v H v ",
"T ] R ` W L / h e ~ <.R h G N m ` o.a v C A n o.M <.=.K C H H K ",
"_ ' ` { | ` ' L I >.;.I M o.D E ` ` M C K M [ ` =.<.] T K _ U ' ",
"} | { &.+.;._ Y ] ,.] C m  .L  .o.v L L T K #.U <.;._ U _ ) _ } ",
"+.X.*.*.[ +.] W | ;.Y C {  . ...o.K T T T ` X.' 2.;._ _ [ [ } } "
};
