/* XPM */
static char *result[] = {
/* columns rows colors chars-per-pixel */
"64 64 152 2 ",
"   c #020665",
".  c #070C62",
"X  c #090D66",
"o  c #02076D",
"O  c #02096B",
"+  c #090D6C",
"@  c #0B106D",
"#  c #020673",
"$  c #030A74",
"%  c #090E73",
"&  c #02067C",
"*  c #030C7C",
"=  c #090D7B",
"-  c #03117F",
";  c #0D117A",
":  c #020783",
">  c #040C83",
",  c #090D84",
"<  c #02078A",
"1  c #030B8C",
"2  c #0A0F8D",
"3  c #051184",
"4  c #0E1380",
"5  c #05128C",
"6  c #0D128B",
"7  c #020793",
"8  c #040B93",
"9  c #090E93",
"0  c #02079D",
"q  c #040C9B",
"w  c #090E9C",
"e  c #051394",
"r  c #0B1194",
"t  c #061896",
"y  c #05149B",
"u  c #0B139B",
"i  c #061B9E",
"p  c #10159C",
"a  c #0307A4",
"s  c #040CA4",
"d  c #080DA4",
"f  c #0307AC",
"g  c #040CAB",
"h  c #0A0FA8",
"j  c #0615A4",
"k  c #0B15A4",
"l  c #0719A4",
"z  c #0613AC",
"x  c #0D13AB",
"c  c #0619AD",
"v  c #081AAD",
"b  c #1117AC",
"n  c #1218AF",
"m  c #040CB4",
"M  c #0A0FB2",
"N  c #0307BB",
"B  c #040DBC",
"V  c #090EBC",
"C  c #0514B4",
"Z  c #0C13B5",
"A  c #071AB4",
"S  c #091BB3",
"D  c #0513BC",
"F  c #0D14BC",
"G  c #071BBD",
"H  c #091DBD",
"J  c #1219B6",
"K  c #1117B9",
"L  c #1219BB",
"P  c #0821B3",
"I  c #0A21BC",
"U  c #0307C6",
"Y  c #050DC4",
"T  c #090EC5",
"R  c #050DCB",
"E  c #090DCC",
"W  c #0614C4",
"Q  c #0C16C5",
"!  c #071AC4",
"~  c #091CC3",
"^  c #0614CB",
"/  c #0C14CC",
"(  c #071BCB",
")  c #091CCD",
"_  c #1017C6",
"`  c #1219C3",
"'  c #121ACC",
"]  c #060DD3",
"[  c #090ED5",
"{  c #060CDC",
"}  c #090EDC",
"|  c #0613D3",
" . c #0A15D5",
".. c #071AD4",
"X. c #091BD4",
"o. c #0613DC",
"O. c #0A15DC",
"+. c #071ADC",
"@. c #0A1BDC",
"#. c #1017D1",
"$. c #121BD3",
"%. c #1017DC",
"&. c #121BDB",
"*. c #0720C6",
"=. c #0922C4",
"-. c #0720CC",
";. c #0A23CC",
":. c #0A2ACF",
">. c #0B24D3",
",. c #0C28D4",
"<. c #0A23DC",
"1. c #0C2ADB",
"2. c #050BE4",
"3. c #080EE4",
"4. c #050AEB",
"5. c #080FEC",
"6. c #0614E3",
"7. c #0A14E4",
"8. c #071AE4",
"9. c #0A1BE3",
"0. c #0615EC",
"q. c #0A15EC",
"w. c #071AEC",
"e. c #0A1BEC",
"r. c #1017E1",
"t. c #121CE4",
"y. c #121CEB",
"u. c #0615F4",
"i. c #0A15F4",
"p. c #071AF4",
"a. c #0A1CF4",
"s. c #0616FA",
"d. c #0A16FA",
"f. c #071BFA",
"g. c #0B1CFB",
"h. c #121CF4",
"j. c #111DFA",
"k. c #0B22E4",
"l. c #0C2AE4",
"z. c #0B23EC",
"x. c #0D2BEC",
"c. c #1320E7",
"v. c #1320EC",
"b. c #0B23F4",
"n. c #0D2BF4",
"m. c #0720FC",
"M. c #0B22FA",
"N. c #0C2BFB",
"B. c #1322F5",
"V. c #1222FA",
"C. c #0E31F5",
"Z. c #0E32F9",
/* pixels */
"f.m.p.u.j.j.h.h.u.a.a.w.e.t.c.c.e.b.a.e.@...E  .i.h.q.y.y.y.h.i.i.[ o.+.o.9.9.8.6.o.0.i.i.6.e.N.N.N.b.w.w.0.0.0.u.u.0.u.u.p.u.f.",
"a.f.u.d.j.B.j.h.f.a.a.q.e.t.c.c.z.b.e.8.o. . .6.h.h.y.y.y.y.h.i.5.} o.o.8.8.k.8.8.3.i.d.q.q.M.N.N.b.b.w.0.0.0.u.i.i.u.u.u.p.a.f.",
"f.f.d.g.V.j.d.s.f.a.p.e.y.c.c.b.e.a.w.7.O.o.O.i.j.h.h.y.h.h.d.h.O.o.8.8.8.w.w.w.6.q.i.d.0.w.N.N.N.m.p.p.u.u.i.d.u.u.u.u.f.f.p.f.",
"f.d.g.j.V.V.d.d.a.f.p.e.v.v.y.a.a.a.w.9.O.O.7.h.j.d.h.h.h.h.d.i.3.6.0.e.0.0.z.w.q.i.a.i.0.M.N.N.N.b.p.p.i.i.i.d.d.u.s.s.f.f.f.f.",
"f.s.j.j.V.j.s.f.f.u.a.h.v.v.B.a.a.w.w.7.O.7.i.g.j.j.j.h.h.j.d.q.6.w.0.w.p.z.w.0.i.i.d.i.f.N.N.N.m.p.a.u.u.s.d.d.s.s.s.f.f.m.f.m.",
"s.s.j.V.j.j.s.g.M.a.h.B.B.B.h.a.a.i.0.7.7.e.h.j.d.j.j.j.h.j.i.q.0.0.a.w.a.p.p.u.i.a.d.i.M.N.N.M.m.f.s.s.s.s.d.j.s.s.s.f.f.f.m.f.",
"f.d.j.j.j.d.f.g.f.a.V.B.B.h.a.a.p.0.q.q.e.h.d.j.j.j.j.j.j.d.i.5.p.p.a.p.p.u.p.u.d.d.u.f.M.N.N.M.f.f.s.s.s.d.d.d.s.s.f.s.f.f.m.g.",
"g.j.j.j.d.d.g.g.f.a.B.B.V.a.a.f.p.q.e.y.i.a.j.j.j.j.j.j.j.j.5.i.p.p.p.a.f.u.u.u.d.d.s.f.M.N.M.m.g.f.f.s.s.d.d.d.s.s.f.f.f.g.m.f.",
"g.j.j.j.f.f.g.g.d.j.B.B.V.a.d.a.0.i.q.a.h.a.g.j.j.j.j.V.d.a.p.p.p.a.s.d.f.u.u.s.d.d.u.m.N.M.M.g.f.f.s.s.d.j.g.s.s.s.f.f.f.g.m.f.",
"g.j.j.g.s.g.m.f.g.V.V.B.V.f.d.p.p.a.b.a.a.j.j.j.g.g.V.V.g.d.p.f.p.p.a.f.s.u.u.d.d.s.f.m.N.M.g.g.g.d.d.d.j.g.s.s.s.s.f.f.f.f.f.f.",
"j.j.j.g.f.g.m.g.M.V.B.V.a.a.p.p.d.i.a.j.M.j.M.M.V.j.j.j.g.a.a.f.p.f.f.f.p.s.a.f.d.u.f.N.M.V.g.f.d.s.d.g.g.g.f.s.s.f.f.f.g.m.f.g.",
"j.j.d.f.g.m.g.g.V.V.V.V.d.s.f.u.a.a.V.a.j.g.g.j.g.V.V.M.d.s.f.f.f.d.f.d.s.s.d.d.s.d.M.M.M.g.g.g.g.f.d.d.j.j.s.s.f.f.f.f.m.f.f.g.",
"j.j.i.d.m.M.g.M.V.V.V.d.a.s.p.d.a.M.g.M.g.V.j.M.g.M.j.g.p.f.f.f.f.f.d.s.s.s.f.d.s.p.b.M.M.f.g.f.d.g.g.j.j.g.s.s.f.f.f.m.m.g.g.g.",
"a.i.a.f.M.m.m.V.V.V.V.a.d.u.p.p.g.h.B.g.M.g.g.g.V.V.M.g.f.f.m.f.f.p.u.s.u.s.d.s.s.f.M.M.g.f.d.g.g.d.j.j.d.f.d.u.f.f.f.m.m.g.f.g.",
"h.a.d.f.M.m.M.V.V.V.a.a.u.d.u.i.j.M.a.j.a.g.M.j.j.M.g.g.f.m.m.f.f.a.s.s.u.d.f.s.p.M.M.M.g.g.g.g.d.d.j.j.d.f.u.p.a.f.m.m.m.d.a.h.",
"a.i.f.M.M.M.M.V.V.b.i.p.a.p.i.a.M.V.M.M.a.a.g.g.M.V.g.f.f.m.m.p.p.p.u.u.s.d.f.p.p.a.a.a.g.g.g.g.g.j.h.j.f.u.u.p.a.f.g.M.m.a.a.a.",
"q.a.M.M.m.M.V.V.V.a.i.d.p.0.e.h.M.V.h.a.a.a.a.M.M.M.f.a.f.M.p.p.p.p.u.s.f.b.f.p.i.b.a.d.j.d.d.j.j.j.h.j.s.u.u.u.p.f.M.m.b.p.i.a.",
"q.a.M.M.M.M.M.n.h.e.q.a.d.0.a.M.M.M.b.a.M.a.a.M.M.m.f.g.M.f.a.p.u.u.p.u.p.f.u.0.a.a.g.j.j.d.j.j.j.h.h.g.u.u.0.p.p.M.m.m.p.w.q.e.",
"p.M.M.M.M.n.B.b.e.q.q.u.0.q.b.b.b.a.a.a.a.b.B.M.b.f.m.m.M.f.p.p.0.u.p.a.f.a.u.p.w.a.j.d.d.j.j.h.h.h.j.d.p.0.w.p.f.m.M.b.e.q.a.q.",
"e.M.M.M.M.B.h.z.e.0.i.i.0.e.b.n.b.a.e.a.e.a.a.g.m.f.b.b.a.a.w.0.p.0.p.a.f.p.w.0.w.a.d.d.j.j.j.h.h.h.j.i.0.0.0.a.b.b.b.a.e.q.e.7.",
"b.M.M.M.b.B.v.e.7.0.q.0.6.z.b.b.b.a.e.e.e.a.a.V.m.f.b.m.b.p.u.0.0.0.p.a.f.w.w.w.w.a.d.j.j.h.h.h.h.h.d.q.6.0.q.a.b.M.b.q.7.q.7.8.",
"b.N.N.B.b.e.z.9.o.q.q.6.8.z.b.b.z.k.e.e.e.a.b.a.b.b.m.b.p.0.0.0.0.p.f.M.a.w.w.w.0.a.g.j.h.h.h.h.h.h.d.6.0.0.e.e.b.b.z.6.7.q.6.e.",
"b.N.b.b.z.k.9.@.o.q.6.o.8.z.n.z.e.9.8.8.e.a.a.M.b.m.m.b.w.0.0.6.w.a.b.a.a.w.8.0.q.d.d.h.h.h.h.y.h.j.q.6.8.e.e.a.b.b.e.o.q.6.O.e.",
"N.n.n.v.9.9.9. .O.7.6.o.k.x.z.k.9.9.9.9.e.i.a.M.m.b.b.b.0.6.0.6.w.b.M.b.e.0.6.8.i.j.h.h.h.h.y.y.h.h.3.6.6.8.e.e.z.z.+.o.7.o.+.z.",
"n.n.z.k.9.@.X.| O.6.] X.k.z.z.8.<.+.+.8.e.a.a.f.b.b.b.z.6.6.6.0.w.b.b.b.w.6.6.6.h.j.h.h.y.y.y.y.i.q.{ 8.9.8.e.a.z.8.| 6.6.| @.b.",
"N.x.z.9.@.X.^ | 3. .^ X.l.k.k.<.+...X.w.w.a.b.b.b.b.b.w.6.6.6.w.b.N.b.z.6.o.o.0.h.h.y.y.y.y.y.h.i.o.o.O.O.8.k.z.8.| | 6.o.| k.n.",
"n.x.<.X.X.( W [ O.R ^ @.l.k.@.@.....+.e.w.a.a.b.b.b.z.6.2.6.6.z.b.b.b.e.o.o.o.p.j.v.c.c.y.y.t.h.q. .| +.@.8.k.k.+.^ o.o.^ X.k.n.",
"x.k.X.X./ D Y | ] D ! <.<.<.X.( ( ..+.q.a.w.b.b.b.z.w.o.o.o.8.z.n.n.z.8.o.| o.d.v.t.t.c.t.t.y.h.o.] | +.X.9.k.@.( ^ o.{ W +.x.C.",
"l.<.X.Q W C W [ Y A ) <.<.-.( ^ ^ ^ 8.q.e.a.a.z.z.z.6.o.o.o.8.n.n.n.k.+.| | 6.a.y.t.t.t.t.t.a.q.E | | | X.9.k.X.W ] o.R W <.n.n.",
"1.) ! ~ C g R ^ m D ) >.>.) ! ~ W ..7.w.w.b.a.z.z.8.o.o.| o.z.n.N.b.8.| ] ] q.a.&.&.&.t.t.r.h.o.W W ^ ..X.@.X.! B | o.B ( l.x.x.",
">.! ~ C s m E V g G -.-.! ! G W G ..0.e.q.b.k.z.k.+.| | | +.b.N.n.z.+.| E } i.t.$.&.&.t.r.y.q.Y W ^ ^ ) ..<.! C Y o.R C -.x.x.l.",
"-.G A g q V Y g j ~ ;.;.! ~ A D W o.e.7.e.z.k.k.+.+.| R | k.n.C.n.k.+.W Y 3.h.$.$.$.$.&.r.i.o.D W ! Q ) >.) W m ] o.m G 1.x.l.1.",
"~ A z q s B B q z G *.*.G A C C W 6.8.e.z.8.8.<.+.R ^ R X.z.n.Z.z...^ W ^ q.9.' ' #.&.&.r.5.Y D D W ! ) ( ! z B | R s *.l.x.1.:.",
"A c y 1 f V g 8 c =.I G A C z C  .6.8.e.e.k.<.<.| ^ R ^ @.n.Z.n.k.X.W B { i.' ` ' #.&.%.q.3.m A A W ! *.! G z R { B z -.l.l.>.*.",
"c j 8 7 m B 8 y A I I A c z z D 6.6.8.e.9.<.....^ R W ( z.C.C.x.<.( D B 7.t.` L _ #.%.%.i.T g C A G ~ ! G s m | ] s A 1.x.1.;.H ",
"j e > q N s 1 y A A A c c z j W 6.6.w.9.+.-.X.| W B D ..x.Z.n.l.( D D Y q.' J L _ #.#.q.3.h z C C G G I c q B { Y q I 1.l.,.I c ",
"y 5 : s m 7 3 l A A v l j j j | 6.O.q.@.-.-.( ^ B m W <.C.Z.x.<.W Z h } r.K n K _  .} 5.Y s z z c A G A y a R { s y :.l.1.*.A l ",
"e & 7 f a : 5 c v v l j j y m 6.o.O.8.X.! *.! Y B C ( l.C.C.c.>.D C m 5._ b b K _ #.r.5.g y j j z A A j 1 m { R 8 A ,.l.>.I l i ",
"> # q f 7 = t l c l j j j y E 6.o.8.@.! ! ! W m g C >.n.Z.n.<.~ C s T 3.b k b Z /  .5.R 7 y j j c c c e 7 Y { f 5 =.1.1.;.c y t ",
"$ : a s : * y l l l y y e s | | +.8.) =.I D B g z ! 1.Z.C.x.) C z s 3._ p p x F E o.5.g 8 y y l c c y > g { ] 7 i ;.1.>.I l t 5 ",
"$ 7 f 7 # 3 y k i y y y 1 C 3.| o.+.! =.G D m C c ) x.Z.C.<.H z y m 3.x 6 p x Q E 5.[ < 8 e y j l l 5 : N 2.B > A ,.1.=.v t 5 3 ",
"# 0 a : $ 5 y i y y t e q R  ...9.X.-.*.! D g s A <.C.Z.x.;.C j 8 R / r 6 p M E [ 5.m , e e y y j y * 0 { { q 5 =.1.,.I i t 3 $ ",
": a 0 o = t y t e y t 1 C o.@.6.9.>.X.) D g g j I l.Z.C.1.H j y q 2.x 4 6 w V E } } < 1 8 e t y y 5 & N 2.U * l :.1.=.v t 5 - O ",
"7 a : O 3 e y t z A A D | O.+.9...-.-.D A g s j ;.x.Z.x.>.v y 1 N } 6 ; 6 h T E 5.N & 5 5 5 t t t * < R 2.f * P 1.,.I l 5 3 $ O ",
"0 0 # $ y A W ! W ~ D W O.+.X.8.X.) ! C m s y A 1.Z.C.l.H j e < ] M ; ; 9 M T { 4.7 * 5 5 5 t e 3 $ f 2.] : e ;.1.:.P t 3 - O * ",
"m m g D W ! Q ! ~ W D R 6.X.6.+.( ) ~ C s q y ~ l.C.x.1.A e > a } 2 @ ; w V E 2.U & 3 3 5 5 t 5 * & U 2.B $ c >.,.I l 5 3 $   7 ",
"R V m D ! ! ^ ! ! W V o.o. .8.( *.( A g q e j >.C.C.l.~ y 5 & R T % + , d T ] 4.q $ 3 3 5 5 t 5 # 0 { 2.7 3 I 1.:.P t 5 y q g ^ ",
"R m B W ^ W ^ Q W D W O.O.O.+.( *.G c g q r S k.C.n.,.A e > < 2.9 X % 9 M U { ] & * 3 > 5 5 5 - # U 4.U * i :.1.:.*.! D D g Y ] ",
"Y m W W ^ ! ^ ^ W D ..O. .@.X.Q ! A g d 9 y ;.x.n.l.` k 5 $ m E % X = w N U 4.f o - 3 3 5 5 3 O 7 ] 4.N e -.x.x.1.( W D C m R R ",
"B B W ^ ^ ( ! ! W W 7. .O.O.! ) ~ C z q 2 v >.x.x.,.S e > & ] a X + , f U { 2.: $ - 3 3 3 5 - * U 5.5.B ! l.C.l...( W D m Y R ] ",
"B Y W W ^ Q ( ^ V | 6. .9.../ ( G h d 9 r H k.n.l.;.l 5 = 0 { , X # 7 V T 4.B o = - 3 e l A C U 4.i.{ D X.x.x.k.X.W W D m R ] R ",
"B W ^ ^ ^ ..( W W o.O.&.O./ X.! C g w 5 k >.x.x.<.H r 3 # U N + X , d N ] 2.7 & y z W W W W m | i.0.R W k.n.l.<.( ! W m Y ] ] Y ",
"W W ^ | ^ X...W / 7.&.%.X.^ ) ~ z h 9 r S <.x.l.;.k 5 = < { 8 . % 9 f E 4.{ m A D W W W W D B 2.u.4.V ..x.x.k.X.^ W D B R ] ] B ",
"W | / ..| X.^ E O.7.@.9.| X./ D z d 9 x ' k.x.<.I y 3 $ N E = % 9 F } r.i.] m D D W W Q W B R 5.i.] W <.x.z.<.X.^ W B Y R o.R Y ",
"| | ....X.X.| | 7.%.@.O.....( A z w r J >.x.l.>.v 5 * : { / b K _ #.r.q.0.B D W W W Q ^ W B { i.5.U / z.x.z.@.^ ^ W B R ] o.R Y ",
"..| o.+.+.o.^ O.e.%.9.o.....! D x u k ~ <.l.1.=.A C C ] q._ K ` #.%.7.i.{ B D W W ^ ! W V U 5.i.{ W <.x.x.k.X.^ ^ W R ] o.] R ^ ",
"X.o.o.@.@.o.[ 7.t.t.7...+.X.W A x u S >.x.x.k.+.^ W B 3.7.L Q _ } 7.q.5.E B W W ^ ! ^ W B { i.i.^ ( k.n.z.k.....| Y R o.o.] ] | ",
"8.+.8.9.9. .6.y.t.9.@.+.@.( D D Z ~ &.z.n.z.k.X.W D Y i. .Q Q / %.7.i.3.B W W W ^ ( ..W E 6.i.q.R +.n.n.l.9...| | R { 6.o.] | +.",
"8.8.8.8.8.o.q.q.t.e.O.+.9.X.o. .) $.k.b.b.k.@.| W V } i.' _  .%.7.q.i.] D W ^ ^ ( | ^ W | i.i.{ | k.n.z.k.+.| | | ] 6.3.{ | o.6.",
"8.7.e.w.6.6.y.y.y.q.8.e.e.6.O.#.$.@.c.z.z.k.X.^ W Y q.7.' ' $.r.r.i.q.E W ^ ^ ..| ..^ R 6.i.5.] +.n.n.n.k.8.+.o.] o.6.6.o.o.6.8.",
"w.e.w.w.6.i.h.h.a.w.0.z.8.8.O.$.&.t.z.b.e.9.| W Y  .i.O.#.#.%.7.q.i.{ Y ^ ^ | ......^ ] q.d.6.| k.C.C.z.9.8.+.o.{ 6.0.6.6.6.8.6.",
"q.a.a.w.q.a.h.h.i.w.a.w.8.8.@.&.9.z.z.b.k.@...^ W q.q.&.&.&.r.y.q.i.| ^ | ....o.+...] 6.d.p.o.+.n.b.n.z.8.8.8.{ 6.0.0.6.6.0.w.w.",
"a.w.a.0.i.h.B.j.i.w.w.z.7.8.%.&.c.k.b.z.9.+./ W [ h.q.&.&.r.y.q.h.q.E | X.o.+.+.+.o.o.q.i.q.o.w.b.n.b.w.8.6.6.6.0.0.5.4.6.w.p.w.",
"b.f.p.u.j.j.h.a.w.a.a.e.q.t.&.c.e.b.z.e.9.| / E 7.d.t.t.r.y.q.h.i.} | ..o.+.+.+.+. .6.i.d.6.8.n.N.N.b.w.6.0.6.4.0.i.0.0.0.p.p.b."
};
