/* XPM */
static char *result[] = {
/* columns rows colors chars-per-pixel */
"19 34 18 1 ",
"  c #0E071B",
". c #100515",
"X c #131313",
"o c #1A1932",
"O c #391F21",
"+ c #571C27",
"@ c #5D2C28",
"# c #2A2F4E",
"$ c #424C6E",
"% c #BF6F4A",
"& c #E69C69",
"* c gray52",
"= c #92A1B9",
"- c #B4B4B4",
"; c #F6CA9F",
": c #C7CFDD",
"> c white",
", c None",
/* pixels */
",,,,,,,::,,,,,,,,,,",
",,,,,,,=:=.==::,,,,",
",,,,,,,,=.==::::,,,",
",,,,,,,,,===&&&&,:,",
",,,,,,,,:==&=:;=:,,",
",,,,,,,:==&&XX;X,,,",
",,,,,,::===&&&;&,,,",
",,,,,::====:&:::,,,",
",,,,,::=>-==:===:,,",
",,,,::=>>>-===::=,,",
",,,,::=>>>>-===:=,,",
",,,::==>>>->-====,,",
",,,::=>>>-*->-==o,,",
",,,===>>>-**-*$#o,,",
",,,==,>>-**-*$$#oo,",
",,,,=,>>-*--*$##oo,",
",,,,,,>>-***$$##oo,",
",,,,,,>>-$  $###oo,",
",,,,,,,>-        oo",
",,,,,,,@O  ###oooOO",
",,,,,,,@O==###oooOO",
",,,,,,,;&&####ooo%%",
",,,,,,+;;&$$#oooo%%",
",,,,,+++##$$#ooooo,",
",,,,+++##$$$#ooooo,",
",,,+++###$$##ooooo,",
",,+++,###$$#oooooo,",
",+++,,##$$$#oooooo,",
"++,,,,##$$##ooooo,,",
",,,,,,,####,ooooo,,",
",,,,,,,@@O,,,OOo,,,",
",,,,,,,@@O,,,OO,,,,",
",,,,,,@@O,,,,OOO,,,",
",,,,,,OOO,,,,OOOO,,"
};
