/* XPM */
static char *result[] = {
/* columns rows colors chars-per-pixel */
"19 34 18 1 ",
"  c #07010D",
". c #0B0B0B",
"X c #060114",
"o c #36191B",
"O c #13122E",
"+ c #561522",
"@ c #5D2823",
"# c #252B4D",
"$ c #404B6E",
"% c #C07049",
"& c #E79D69",
"* c #868686",
"= c #93A2BA",
"- c gray71",
"; c #F6CBA0",
": c #C8D0DE",
"> c white",
", c None",
/* pixels */
",,,,,,,,,,::,,,,,,,",
",,,,::== =:=,,,,,,,",
",,,::::== =,,,,,,,,",
",:,&&&&===,,,,,,,,,",
",,:=;:=&==:,,,,,,,,",
",,,.;..&&==:,,,,,,,",
",,,&;&&&===::,,,,,,",
",,,:::&:====::,,,,,",
",,:===:==->=::,,,,,",
",,=::===->>>=::,,,,",
",,=:===->>>>=::,,,,",
",,====->->>>==::,,,",
",,O==->-*->>>=::,,,",
",,O#$*-**->>>===,,,",
",OO#$$*-**->>,==,,,",
",OO##$*--*->>,=,,,,",
",OO##$$***->>,,,,,,",
",OO###$XX$->>,,,,,,",
"OOXXXXXXXX->,,,,,,,",
"ooOOO###XXo@,,,,,,,",
"ooOOO###==o@,,,,,,,",
"%%OOO####&&;,,,,,,,",
"%%OOOO#$$&;;+,,,,,,",
",OOOOO#$$##+++,,,,,",
",OOOOO#$$$##+++,,,,",
",OOOOO##$$###+++,,,",
",OOOOOO#$$###,+++,,",
",OOOOOO#$$$##,,+++,",
",,OOOOO##$$##,,,,++",
",,OOOOO,####,,,,,,,",
",,,Ooo,,,o@@,,,,,,,",
",,,,oo,,,o@@,,,,,,,",
",,,ooo,,,,o@@,,,,,,",
",,oooo,,,,ooo,,,,,,"
};
