/* XPM */
static char *result[] = {
/* columns rows colors chars-per-pixel */
"32 32 226 2 ",
"   c #020000",
".  c #0B0103",
"X  c #140205",
"o  c #1A0205",
"O  c #1E0208",
"+  c #230404",
"@  c #2C0504",
"#  c #25040A",
"$  c #2C040B",
"%  c #340605",
"&  c #3D0804",
"*  c #34040C",
"=  c #3D060C",
"-  c #440905",
";  c #4A0A05",
":  c #43050D",
">  c #4C070E",
",  c #41080B",
"<  c #4D090A",
"1  c #550B04",
"2  c #5C0D05",
"3  c #5D070F",
"4  c #570A0C",
"5  c #5D0B0C",
"6  c #5A1106",
"7  c #440511",
"8  c #4A0512",
"9  c #4E0912",
"0  c #540514",
"q  c #590614",
"w  c #560910",
"e  c #5B0B11",
"r  c #5E0319",
"t  c #5C0919",
"y  c #640D05",
"u  c #6B0F06",
"i  c #640B0C",
"p  c #6C0E0F",
"a  c #730E06",
"s  c #631007",
"d  c #6D1005",
"f  c #69120A",
"g  c #741104",
"h  c #7A1008",
"j  c #7B120B",
"k  c #630517",
"l  c #640A12",
"z  c #6A0912",
"x  c #63051A",
"c  c #6C081A",
"v  c #730B13",
"b  c #7A0E13",
"n  c #74061C",
"m  c #7A061E",
"M  c #750819",
"N  c #75091A",
"B  c #7D1116",
"V  c #7C0621",
"C  c #830E0D",
"Z  c #821205",
"A  c #8B1302",
"S  c #83130A",
"D  c #8B140B",
"F  c #8B1A08",
"G  c #941504",
"H  c #9B1602",
"J  c #971A07",
"K  c #93130C",
"L  c #99150D",
"P  c #840D14",
"I  c #8C0D16",
"U  c #840A18",
"Y  c #910D16",
"T  c #940B1D",
"R  c #841113",
"E  c #8C1314",
"W  c #941212",
"Q  c #9D1413",
"!  c #911911",
"~  c #9C111C",
"^  c #A51803",
"/  c #AD1905",
"(  c #A7170A",
")  c #A2150D",
"_  c #A41A0D",
"`  c #A9190A",
"'  c #B31B04",
"]  c #BB1B04",
"[  c #B41B0B",
"{  c #BB1A0D",
"}  c #A50D1E",
"|  c #AD0F1C",
" . c #A21111",
".. c #AB1514",
"X. c #AC1C14",
"o. c #A4131B",
"O. c #AB131C",
"+. c #B31312",
"@. c #B81613",
"#. c #B21C13",
"$. c #BD1C12",
"%. c #B41618",
"&. c #BC121D",
"*. c #BC1A19",
"=. c #9B2005",
"-. c #A52406",
";. c #B22405",
":. c #B82A07",
">. c #AC2016",
",. c #B42014",
"<. c #BD2011",
"1. c #820720",
"2. c #8D0623",
"3. c #8D0826",
"4. c #980727",
"5. c #940923",
"6. c #9B0A23",
"7. c #9B0729",
"8. c #A30A25",
"9. c #AA0B24",
"0. c #A4062B",
"q. c #AD072C",
"w. c #AC092C",
"e. c #B70C25",
"r. c #B7072E",
"t. c #B30A2B",
"y. c #BD0A2B",
"u. c #A81120",
"i. c #B51222",
"p. c #B41129",
"a. c #AA0D39",
"s. c #B90832",
"d. c #C31C05",
"f. c #CD1E04",
"g. c #C41D0C",
"h. c #CB1E0D",
"j. c #D41E04",
"k. c #D61F07",
"l. c #DA1E0D",
"z. c #C61D11",
"x. c #CC1C13",
"c. c #C4151B",
"v. c #C9141C",
"b. c #D21C14",
"n. c #D81C10",
"m. c #D31C1B",
"M. c #DC1B1D",
"N. c #F41F0B",
"B. c #E31C12",
"V. c #EC1D13",
"C. c #E8171F",
"Z. c #E31C1C",
"A. c #C42B04",
"S. c #CA2A06",
"D. c #C6200E",
"F. c #CD220C",
"G. c #CD280A",
"H. c #DB2103",
"J. c #D32B07",
"K. c #D92B04",
"L. c #D3230D",
"P. c #DC2209",
"I. c #D42B09",
"U. c #DC2909",
"Y. c #C32113",
"T. c #CD2110",
"R. c #CE201C",
"E. c #D22113",
"W. c #D72215",
"Q. c #E52206",
"!. c #EC2305",
"~. c #E62802",
"^. c #E3230A",
"/. c #EC250C",
"(. c #E52A0D",
"). c #EC280B",
"_. c #F52404",
"`. c #FA2402",
"'. c #F2240C",
"]. c #F4270C",
"[. c #E42313",
"{. c #EB2214",
"}. c #F52512",
"|. c #F92113",
" X c #F42019",
".X c #F82118",
"XX c #C40B2C",
"oX c #CB0D2A",
"OX c #D40E2C",
"+X c #D90E2D",
"@X c #C51422",
"#X c #CC1322",
"$X c #CC1924",
"%X c #D31223",
"&X c #DB1423",
"*X c #DC1728",
"=X c #C30B32",
"-X c #CC0A35",
";X c #C50A3B",
":X c #CE0839",
">X c #D40B33",
",X c #DE0B35",
"<X c #D8073A",
"1X c #D70B39",
"2X c #DC093B",
"3X c #CF1239",
"4X c #DE1135",
"5X c #E60F2E",
"6X c #E51327",
"7X c #E41726",
"8X c #EB1624",
"9X c #EA122C",
"0X c #F61528",
"qX c #E40E33",
"wX c #E5073D",
"eX c #E40C3A",
"rX c #EB0B3D",
"tX c #F40B3E",
"yX c #F90E3A",
"uX c #C00C40",
"iX c #D40B4A",
"pX c #DC0B49",
"aX c #C40B53",
"sX c #E70945",
"dX c #EB0B42",
"fX c #F40943",
/* pixels */
"y ; : q <X:Xs.@XL.2 + + = p $ o # 8 N N m r.iXpX8.$ q p Z d.Q.l.",
"^ y i M q.wXqX6X .6 & % k 6.> O 8 4.7.6.Y q.wXiX2.o 0 M C A j.Q.",
"h.A a P 9.,X+XZ.S 6 u } XXoXz * w.dXrXOXV.+.%X9X3 : q.6.T E E #.",
"g.d.S R ~ *.m.[ j s v t.;X>Xe k r.rX2X6Xb.d.b.B.z v t.tXXX6.Q ` ",
"{ { x.X.%.W.[.F s < q 6.XX@X5 T +X4X$Xz.<.:.n.Y v P V :XuXoX..) ",
"$.X.m.$Xi.W.R.i - 5 N 6.o._  .v.C.|.[.A.;.I.[ 5 5 # X 5.-XOXc.#.",
"{ ..c.i.9.O.! f y i b W ) M.$XM.{.).I.=.J ^ d * = $ o 8 n o.$.[ ",
"{ ) z 8 8 e v s 2 * 8 i W *X7XM.U.I._ ; f G d % 8 $ * 7.0.8...[ ",
"d X X # 9 N E E 5 4 v I m.8XZ.L.;.F > $ = 1 h z N 7 7 2XuX-Xv.h.",
"X . X m 6.8.i.! R b E &.0XZ.[.-.G ^ $ $ : 4 c.XXy.T n 2XpXeXM.L.",
"X X = w.a.3X@X_ o.u.o.*.L.~.:.' ] G + * w U @Xr.=X@XT >XyX0X.Xg.",
", 8 U >X4X$XY.Y.*.%.z.[.S.:.d.d.F.H : i Y &.8.e.%XE. .&.8X X[.J ",
"i C c.9XZ.L.G.N.n.E.^.(.^.] ] j.H.l.K ( { l.v.@.j a d.z.B.].}._ ",
"Q ` l.'.S.I.Q.Q.F.F.h._ - & A Q.`._._.N.{ o # # * z K 8 e v Q T.",
"$.^.).U.K.Q.Q.Q.Q.' + . X - ] (.T.Y.g.& .   O + 0 5.+.7 9 z B { ",
"!.Q.L.L.!.^.!.d.-     . # ^ _.I.D.g.) X     o 0.1X>X: X * z D ] ",
"_.Q.L.P.Q.g.p + .   X O I B.(.S.D.Y.p X   X c sXaXdX. O x 4.&.k.",
"~.`.!.!.' - . . . . 8 n e.Z.S.~.h.z.p % - z r.fXiXt X 3.fXfX9XN.",
").`.Q.^ , O X . . 7 q.8.%X{.A.] G f./ g D +.&X0Xl . $ 3.sXrX5XV.",
"(.`.!.% # X X * x <XeX%XC.}.o   + d g.d.] +.x...* $ 7.<X=X5X0X|.",
"L `.j.@ @ X o V :XpXqXi.F.#     @ h [ Q._.W.^.5 l x 7.dXtXT z j ",
"K H.Q.- - * x q.dXrXp.S 1 .     l Q ..E.^.<.h.D j P 4.w.t c V R ",
" .' `.Z a v 6.e.+XT X $ i     * 5.9.X.E.P.<.D.F.! H ..* * 4.3.5.",
"9...h.x.) ` @...O . # n m X r 2X>X%Xn.|.`.`.`.!.!.d.6 e x s.=Xw.",
"XX+.g.^.L.g.p * # # 4.:X7.* 2XaXyX0X_.].`.`.`.Q.Q.^.S u N 3.1XrX",
"XX~ o./.F.g.w 8 7 V fXpXqX1.rXiXiXW.J.S.`.`.`.Q.^.^.P.A C T t.>X",
"5XM.%.].G.F.a 5 z 8.fXrX6X| 9X9XR.S.:.G ^ !.`.Q.l.,.#.D.K L | 9.",
"b..XV.;.f.Q.[ D Q | 6X#Xb.{ V.}.K.:.. . + ; H `.Q.#.#.$.h.' ' ..",
"R l : @ - u ' j.f.K R ..E.L.).J.A.. . . X % 2 A P.X.>.#.h.`.Q.K ",
"  . X O % < y H Q.F ! $.x.L.Q.] Z         * 3 a D ! ,.$.P.`.f.@ ",
"X . . X : k v D ] G 4 : w R % X X o X X X 0 n U P l b { `.`._.1 ",
"; @ o o x V 2...f.@ # $ : 5 o X   + , 7 q <XwXq.T : i h H.Q.Q.G "
};
