/* XPM */
static char *result[] = {
/* columns rows colors chars-per-pixel */
"64 64 255 2 ",
"   c #030001",
".  c #0C0103",
"X  c #130204",
"o  c #1B0205",
"O  c #1E0208",
"+  c #230404",
"@  c #2B0505",
"#  c #240309",
"$  c #2B040B",
"%  c #330604",
"&  c #390705",
"*  c #3D0903",
"=  c #33040B",
"-  c #3B050D",
";  c #3C080D",
":  c #3E0410",
">  c #400607",
",  c #440905",
"<  c #4C0A05",
"1  c #43060D",
"2  c #4A060D",
"3  c #450909",
"4  c #4C090B",
"5  c #530C05",
"6  c #5B0C05",
"7  c #53070E",
"8  c #530A0B",
"9  c #5C0A0C",
"0  c #5C1305",
"q  c #430411",
"w  c #4C0513",
"e  c #470811",
"r  c #530513",
"t  c #5B0615",
"y  c #540912",
"u  c #5B0912",
"i  c #5C0619",
"p  c #630D04",
"a  c #6B0F04",
"s  c #640C0C",
"d  c #6C0D0D",
"f  c #730F06",
"g  c #730E0C",
"h  c #7B0F0B",
"j  c #671105",
"k  c #6C110A",
"l  c #741004",
"z  c #7C1104",
"x  c #7C1A07",
"c  c #75110C",
"v  c #7D120C",
"b  c #630614",
"n  c #630A12",
"m  c #6C0A14",
"M  c #64051A",
"N  c #6D051B",
"B  c #6A0819",
"V  c #720716",
"C  c #740C12",
"Z  c #7B0C13",
"A  c #74061C",
"S  c #7B061E",
"D  c #730B1C",
"F  c #7C091B",
"G  c #7B1114",
"H  c #7D0521",
"J  c #780920",
"K  c #840E0C",
"L  c #831304",
"P  c #8C1404",
"I  c #83120C",
"U  c #8B130C",
"Y  c #8A1A08",
"T  c #941504",
"R  c #9D1605",
"E  c #95140D",
"W  c #9B150C",
"Q  c #981A08",
"!  c #830C14",
"~  c #8C0E15",
"^  c #84071E",
"/  c #84091B",
"(  c #8D0B1B",
")  c #950E13",
"_  c #940B1C",
"`  c #9B0D1C",
"'  c #821113",
"]  c #8C1213",
"[  c #851218",
"{  c #951513",
"}  c #9C1313",
"|  c #951318",
" . c #9D121A",
".. c #A31605",
"X. c #A91705",
"o. c #A51803",
"O. c #AC1904",
"+. c #A4160C",
"@. c #AB160D",
"#. c #A41A0D",
"$. c #AC1A0C",
"%. c #B41A04",
"&. c #BB1B05",
"*. c #B5160C",
"=. c #B41B0D",
"-. c #BB1B0C",
";. c #A50E1C",
":. c #AB0E1D",
">. c #B60F1D",
",. c #A41413",
"<. c #AB1313",
"1. c #A51915",
"2. c #AB1C14",
"3. c #A4121B",
"4. c #AD131B",
"5. c #B31613",
"6. c #B31B13",
"7. c #BC1C13",
"8. c #BA1817",
"9. c #B3131B",
"0. c #BC131C",
"q. c #8F2205",
"w. c #A92407",
"e. c #BB2C04",
"r. c #B82509",
"t. c #B12014",
"y. c #840723",
"u. c #8B0723",
"i. c #8B0921",
"p. c #930625",
"a. c #930A21",
"s. c #9B0A24",
"d. c #9A0728",
"f. c #9C0D35",
"g. c #A20C23",
"h. c #AC0C24",
"j. c #A4072B",
"k. c #AB072C",
"l. c #A50A29",
"z. c #AD092B",
"x. c #B30D24",
"c. c #BC0D25",
"v. c #B3072F",
"b. c #B4092C",
"n. c #BB0A2D",
"m. c #AA1124",
"M. c #B71425",
"N. c #BB1223",
"B. c #B70834",
"V. c #B40D35",
"C. c #BC0931",
"Z. c #C41D04",
"A. c #CB1E04",
"S. c #C41C0D",
"D. c #CB1D0D",
"F. c #D31E03",
"G. c #D91F04",
"H. c #D31D0D",
"J. c #DB1E0C",
"K. c #C31C13",
"L. c #CC1B13",
"P. c #C4131D",
"I. c #CB151C",
"U. c #C81A19",
"Y. c #D31C14",
"T. c #DC1D15",
"R. c #D6181C",
"E. c #DC1B1A",
"W. c #E31E09",
"Q. c #F11E0F",
"!. c #E31C14",
"~. c #EA1B17",
"^. c #E31B1C",
"/. c #EB1C1B",
"(. c #F61C19",
"). c #C72707",
"_. c #C42C05",
"`. c #CB2B05",
"'. c #C5210E",
"]. c #CC220D",
"[. c #DC2104",
"{. c #D32B05",
"}. c #DB2A06",
"|. c #D4230C",
" X c #DB220B",
".X c #D82709",
"XX c #D42A09",
"oX c #C32111",
"OX c #CC2212",
"+X c #CE2417",
"@X c #D32213",
"#X c #DC2313",
"$X c #D2211B",
"%X c #E52206",
"&X c #EA2305",
"*X c #E52906",
"=X c #E3220A",
"-X c #EB240B",
";X c #E2280B",
":X c #EB2809",
">X c #F32403",
",X c #FA2402",
"<X c #F3240C",
"1X c #F7260D",
"2X c #E32213",
"3X c #EC2214",
"4X c #E4201A",
"5X c #F42314",
"6X c #F82215",
"7X c #C70E25",
"8X c #C30C2C",
"9X c #CB0C2D",
"0X c #D30C2C",
"qX c #DB0D2D",
"wX c #C51223",
"eX c #C71525",
"rX c #D31224",
"tX c #D61526",
"yX c #DC1A21",
"uX c #DC1129",
"iX c #C30A33",
"pX c #C80836",
"aX c #CC0A34",
"sX c #D50B34",
"dX c #DD0B34",
"fX c #D80639",
"gX c #D40A39",
"hX c #DB0A3B",
"jX c #C91233",
"kX c #D71236",
"lX c #E10E2C",
"zX c #E41623",
"xX c #E71725",
"cX c #EB142B",
"vX c #F61528",
"bX c #E40C35",
"nX c #EC0E33",
"mX c #E7073D",
"MX c #E40A3C",
"NX c #EB0B3C",
"BX c #F70E37",
"VX c #F40C3B",
"CX c #E61234",
"ZX c #F51133",
"AX c #B60B4D",
"SX c #CA0B48",
"DX c #D80B47",
"FX c #DC0A4B",
"GX c #D11041",
"HX c #CA0A51",
"JX c #E40B44",
"KX c #EC0A42",
"LX c #E60948",
"PX c #F20A42",
"IX c #F90943",
/* pixels */
"a 5 , 1 1 - q i v.pXB.C.v.n.7XI.Y.&.p % + + o o @ 1 9 m 6 o X X $ # ; w M D m B A ^ j.mXLXHXLXfX8Xr # 1 r 9 d f h T Z.%X%X%X%X=.",
"P p 5 5 2 7 t N B.pXgXMXaX9X7XP.L.@.f , @ + + + % y m ! m o o X # $ e i J H / F S ^ d.pXPXHXAXFXmXw # = r t m C h L E Z.%X%X%XF.",
"&.f 6 6 9 t N S j.pXmXmXbXbXuXR.$XU c < * @ @ @ 1 b ^ _ ! O o o $ ; M H u.a._ _ ! _ g.v.fXmXDXHXMX- # $ w i V V h L U R Z.*X=X=X",
"F.R f p p d V ^ d.k.fXmXbXcXxX^.6.U c 0 6 < < 4 m y.s.x.g.o O o e f.C.C.v.z.z.>.*.;.:.n.9XmXVXDXSXO X X 1 M A S F K U U +.D.[.|.",
"-.A.P a a f Z / s.b.dXgXgXCXxX4X{ I k j c d d s.h.k.h.9XwX+ # = D iXdXPXmXaX9X7X~.*.:.>.7X0XnXVXb.= $ - V u.u.^ i.( ] [ ] E 6.7.",
"-.%XZ.L l z Z ~ ` x.9X0XtXxXzXoXI G j j f g  .c.9XsX8XbXrX$ : r y.kXKXFXKXNXdXuX~.W.*.S.I.rXzXvX` 2 2 t g.fX0Xk.s.a._ ~ ] E #.r.",
"S.[.[.O.L L I ~ |  .M.wXeX^.#X{ v v j j g Z g.8XpXhXdXkXN.= e B d.sXPXJXMXNXnXxXR.J.A.S.F.R.!.~.h b b m p.mXVXbX8Xh.g.| | W #.-.",
"$.S.-.=.W U U ] | 3.8.U.L.4XoXY x c k s s m u.C.B.gXdX8X .1 b ^ z.sXMXDXaXjX0XR.L.L.S.A.H.S.L.U.Z C V F _ 8XmXmXNXn.h.g.,.} W =.",
"2.&.=.-.K.6.#.| 1.5.oXY.$X#X1.Y x d 8 8 r M u.v.n.aX0XM.U 9 F s.8XbXCXkXjXeXeX+XoXoXe.).J.U.Y.,.! G / ! S p.pXSXAXkX8Xx.3.,.#.#.",
"<.-.=.-.L.T.L.4.8.8.$X#X2X#X#.x 6 , 4 9 t A i.l.n.wXeX4.v g ~ :.9XlXcXxXxXU.oXr.r.r.r.e.W.K.Z 7 9 s C C N y.j.pXAXkXuX9X9.<.#.1.",
"1.7.2.6.U.T.E.eXeX+X$X#X#X@XE 5 , , 8 9 b A i.g.:.0.8.#.U ) 9.P.yXxX(.(.5X X'._.e.w.r.XXJ.W n 9 9 9 = $ = b d.C.n.aXsXtXP.9.2.@.",
"7.S.<.2.K.E.E.wXM.M.8.eXU.2.c 5 , 5 9 s C ( ` _ } { Q =.*.0.I.tX^./.Q.3X-X*X`.e.e.r.).|.&.g 4 2 2 = # $ O X : y.c.8X8XeXeXK.7.-.",
"K.7.2.5.8.R.R.N.m.m.m.4.1.{ c 0 < j s s C ! ~ { } #.6.T.U.U.eXyX/.(.3X:X;XXX`.w.Q o.o.o.T 5 @ = - = $ $ O O $ r m _ h.M.8.K.-.=.",
"=.6.2.<.9.9.;._ s.g.| [ G ' c p p l d d C Z { { W #.U.yXtXyXzX4X/.=X;XXXXX}.O.Q R R o.o.P < = = ; - $ $ O O q M A ^ ( } 6.r.=.w.",
"$.=.*.<.~ F A B B u y n c c k 8 5 6 & 2 8 s c v I 1.zXtXyXyXzX^.#X|.}.XXXXw.v l z U R R L < % - e w = $ # : H p.p.p.s.;.,.<.=.w.",
"O...U 9 1 = $ $ e w y n m c k k 9 7 - 1 u u m C ] N.xXyXxXxX4X2X X}.).w.Q y = & , 6 l P z 5 % & e y = $ $ w p.v.B.v.b.x.9.5.6.=.",
"L k % X X X # # e w n D G ' I x 9 4 4 7 n C Z ! <.yXvXzXxX/.#X@X{.r.Y Y v 1 $ = & 1 8 f f p 4 u b B r = - i v.gXAXC.aXc.wX8.K.$.",
"j % X . X o # = y B F ( | } { ] k n u n C F ] 3.I.xXxXxXzX2X|.).w.x Y R 6 $ $ $ & 1 4 p L } _ ^ y.( / - 1 M iXPXSXSXsX9XrXL.H.X.",
"* . . . . o ; D i.a.a.g.m.4.} { G c C C ! ]  .P.zXvX/.^.2X2X`.w.x Y o.E 1 $ $ = - 1 4 s ) I.c.x.b.g.g.y r S pXKXLXJXfXdXtXT. XQ ",
"o     . . # N g.l.a.f.M.M.9.{ Q ' ] ~ ~ ~ ` 4.I././.4XT.;X Xw.Y Q %.O.L $ $ $ = ; 2 8 g :.rXuXiXiX9Xc.D N u.iXhXLXKXNXnXzX!.;XU ",
"X . . . O q p.k.f.f.M.jXeX0.} Q ] 3.4.m.m.3.9.Y.2X#X;X*X[.r.q.o.&.%.%.f % # @ - 1 9 m / >.uXaXv.C.9XuX) F s.n.mXBXIXBXvXvX5X<XI ",
"X X O $ - N j.v.AXgXkXjXeX8.w.2. .M.m.g.m.3.8.$X|. X;X.Xr.w.r.Z.r.Z.%.a + o $ 1 y m / :.x.c.k.n.iX7X7X} ( :.7XnXZXBXvXvX5X5X-X0 ",
"% % & 1 M u.C.aXkXkXkXeXoXt.r.t.t.N.4.9.8.t.oX#X{.{.`.e.r.Z.Z.A.Z.A.%.a & & 2 9 C ~ :.>.x.s.h.n.9XrXI.,.U :.7XuXcXxXxX4X#X#XXX4 ",
"4 4 8 b ^ h.sXbXCXkX$XeX+XoX'.@XL.8.9.K.OX#X2X;X)._.).).Z.Z.A.A.F.A.Z.L 9 9 d K ) ;.0.I.:.g.x.7XR.R.Y.-.W *.*.P.yX(.6X3X4X5X).s ",
"9 9 d K ;.7XlXcXzXyXY.@X|.XX|.<X#XY.K.OX#X-X#XXXXX[.|.Z.Z.A.A.[.G.G.G.%.U K K W @.-.L.R.:.0.P.L.Y.H.S.X.*.Z.S.L.#X3X1X3X5X5XoXc ",
"c c K +.P.R.~.~.!.@X|.XX`.|.-X<X X|.OX X-X2X;X X;XZ.O.o.o.&.A.[.&XW.Q.J.&.@.*.*.S.D.H.J.S.+.h 3 @ $ , p P A.H.Y.=X3X3X3X5X3XoXQ ",
"E U E *.H.!.Q.2X X`.XX.X;X%XW.%XD.D.OX|.|.|.'.=.P j 5 6 z o.A.&X>X,X,XQ.&XW.G.G. XJ.Q 4 $ # $ O # - 7 d L W +.{ } #.6.6.8.6.OXr.",
"=.,.,.S.H.-X<X-X_.e.`.*X%X=X=X%X[.|. X X X-.L 5 + + @ , a X.[.*X>X,X,X,X,X,X>XW.L # o X # $ # O $ 1 b ! W +.e w y u n G [ } S.Y.",
"7.7.7.-X<X>X;X{.e.`.&X%X&X=X%X%X&X&X&XF.P * o X X o + 5 L Z.&X:X;X=X=X=XW.=X-.@ X X . . O # # # : t S _ <.K = q e y t C G [ w.@X",
"'.7.oX<X<X:X*X*X*X,X>X&X&X%X%X%X%XA.T * X     . X o 1 f %.W.*X3X|.K.'.K.S.*.s           o o o $ i H s.h.P.4 @ q e y b D D [ W S.",
"=X=X X%X}. X.X|.&X>X&X*X&X%X%XF.o.6 X         . . @ p X.W.&X{.:X@XS.oXD.'.] ;           X o q y.j.v.C.9X7Xo o O $ 1 u d h T o.Z.",
"%X&X%X%X X|.|.[.>X&X&X[.%X[.O.f @ X           . + 6 W H.>X*X`.-XOXS.'.oX=.s $           X : v.fXmXPXbXbXF o o o @ e b F ) +.%.F.",
"%X<X%X*X[.|.|.G.&X&X%X|.O.v 2 O . .       . . O 7 ) L.Q.-X.X_.;X'.D.'.S.} 4 =         . = H fXmXFXFXIXVX# X o O : M S _ ;.*.Z.G.",
"%X,X&X*X X|. X X&X*XZ.U 6 ; O O . . .   o $ @ r F 3.I.T.;X`._.|.'.oXoXS.U e =     . # - M k.PXHXAXHXDXv.  . X q y.d.j.v.c.I.J.W.",
">X*X&X>X&X%XW.%X&X%.k , + . . .         $ w r S s.N.R.^..X_.{.`.oXOXS.7.Y e ; o + % 2 N p.pXVXFXHXSXSXw   . = B.LXKXmXfXqXzX~.>X",
"&X}.>X,X&X%X&X&XX.6 * + X . X .   . . # w A S u.h.rX^.4XXX_.&X].'.S.oX-.] s 8 * < p V _ b.sXVXKXJXGXi     # M DXIXDXFXIXBXvX(.,X",
"&X{.>X,X&X%XG.O.8 , $ o X X . .   X # q S j.s.g.c.zX~.3X`._.>X[.Z.Z.F.[.r.z p p f K ) >.7XlXZXZXCXu     . O N pXFXHXDXKXnXvX~.Q.",
"<X}.>X>X&X%X%.5 * = # O X X . X   # r p.v.aXb.c.7XxX3X5X_.).P p 6 a P &.[.O.P P T ..*.S.R.^.(.vXk     # : N y.j.fXPXbXBXZX~.~.Q.",
"1X{.>X,X>XW.z + + O . X . o o # = M k.DXMXdX9X7XrX/.5X5Xq.% X . o * 6 P &.H.&.O.@.&.S.S.H.!.~.W X X . $ M V.pXC.C.dXqXBXBX(.Q.Q.",
":X}.,X>X>X).< + + O X o o O = i A v.fXKXmXdXqXuXE.5X1X1.X       . % 6 L +.A. XD.Z.H.*.*.S.L.6.2 e e $ r H C.gXKXgXC.8XvXvX(.6X6X",
"w. X,X,X>XX.& + @ O X X X O r H d.DXKXDXMXuXeXwXL.3X6.; .       X * p U X.S.=X=X-X<X].|.#XH.s 8 y u 2 M y.C.NXLXPXsXm.M.t.2.2.$.",
"U %.W.,X>X..* + @ # . X o - A d.iXKXLXJXNXkXN.U.].T X .         + 5 f E @.S.=X=X X>X X2X-X$.k n s m b S u.z.hXLXPXbXi.y M D G ' ",
"] ..A.>X>XO.< % & & # $ : b p.v.fXPXNXKXjXN.8.$.p , .         . ; n ~ W 1.-. X-X X&XOX'.H.=.' g g C C / u.d.z.fXgXJ D i B D c ' ",
"{ R &.W.>XZ.a < < 5 > 7 M y.k.pXmXmXMXC.m.3.4 @ < & .         + u F (  . .1.7.#X|.&XoXoXD.D.$.U ' v U ~ a.s.l.p.y y D B D F / ~ ",
") +.%.F.>XW.P p p s s m ^ g.b.9XdXnXV.m.B o X = s & .       . q S a.g.3.1.4.K.2X X&XoXS.D.L.D.=.E U T W } ;.m - : e D H y.i.i._ ",
";.,.+.-.W.>X&.K f K K ! ` h.x.c.wXm.m $ o X # y V @         = A d.h.x.9.6.7.L.-X%X;XoXS.D.].D.].=.W ..o.@.d 1 : : w d.C.f.a.d.s.",
";.;.<.@.K.J.H.@.E W } W <.0.I.0.u + . . X # e S _ = . . . w d.iXiXiX9XI.U.H.-X:X>X&X;X%X%X%X&X%X%XG.Z.%.a 4 2 r w M l.gXV.V.z.l.",
"k.:.<.5.*.Y.W.L.=.+.@.=.*.*.E $ O .   X = w A p.z.= o X i pXmXKXMXdXuX^.!.3X<X-X,X,X,X,X,X,X&X%XW.=X[.W k s n i M D u.aXiXMXaXb.",
"8Xb.>.*.*.D.~.T.H.-.-.S.T d O O O X . $ i H j.C.9X= o = d.LXLXHXIXBXZXxX5X<X1X*X,X,X,X,X,X,X&X=X%X[.=XS.I f d m N A u.k.aXKXKXaX",
"0X7XP.8.K.D.=X X|.|.@Xr.n q q - ; $ $ r v.DXmXmXbXr = M iXLXHXHXIXBXvX(.6X1X1X*X,X>X,X,X>X>X>X%X=XW.=X[.%.I h g Z F ^ d.z.DXLXNX",
"8Xh.;.` 3.7.=X;X|.].|...7 e 1 e q - q p.mXPXFXPXVX^ i u.aXKXDXDXJXCXxX2X-X[.`.}.,X,X,X,X,X,X&X%X[.%X%X XG.$.L z z K ( d.l.C.kXhX",
"0X8X:.`  .K.=X-X|.].].$.d 7 r r r r N z.KXHXHXLXVXg.S j.sXPXKXDXGXeX$X#XXX`._.>X>X>X,X,X,X,X>X=X=XJ.|.].].'.$.P I U ~ ` g.l.l.9X",
"0XuXwX9.4.L.-X<X.X'.).Z.h s 9 y u m y.b.NXFXJXNXcXc._ x.dXZXBXkXtX+X+XXX_.e._.).|.[.>X,X,X,X>X%XW.D.t.t.2.2.7.#.] P T )  .g.s.x.",
"uXvX(.^.U.#X*X&X*X|.{.[.o.g d d C ! s.b.nXVXCXZXcXE.<.P.uXcXvXyX+X+X_._.e.q.5 5 6 l o.[.,X,X>X%X=X|.2.t.t.t.oX'.@.R R ..@.:.h.wX",
"I./.(.5X3X X)._.[.%X&X>X-.Q I v ! ) g.c.lXZXZXyXR.Y.-.L.!.(.(.!.#XXX_.e.0 X X X + & < l O.W.,XW.%X|.7.t.t.t.oXL.D.Z.%.o.X.@.1.9.",
"K.T.(.(.5X).q.L T %.A.[.].$...T W +.9.4.P.0.h.8.U.Y.*.H.W.,X<X&X;X`.e.4 . . . . X @ * < a T G.W.J.D.2.2.2.2.2.oXD.&X&XZ.%.@.,.5.",
"7.+XL.1.v 3 % & < 6 h ..%.A.Z.&.&.&.K.} F ] 3.9.oX$XoX%X>X<X:X}.`.e.5 . .   . . . # % , 5 a P &.@X+Xt.1.2.t.1.K.L.%X,X,X[.&.#.6.",
"1 = = ; - @ + = * , 5 p z o.G.G.G.A.P d c | 1.7.+X#XXX&X*X}.}.}.}.q.o . . . . . . o $ * 5 p f P r.r.2.t.2.2.1.K.D.&X,X,X&XX.d 4 ",
"      . . X o $ & , 3 5 p f T A.&XZ.U c ' { 2.oX$X#XOX-X<X&X-X[.].a X     .   .   . # : 8 p f h U #.| 2.2.1.2.K.K.&X,X,X&XT * . ",
"      . . X X O = - 2 < 6 a z R G.).R Y { 1.7.t.2.3.K.%X%XZ.P 0 5 3 X             . $ q t b g h I v c { t.7.S. X&X>X,X,X>XO.5 o ",
"X     . . . X O @ w r M d g K T O.F.O.T U v s 9 s c | S.R 3 o X X + o . X X . . . o = w M V V h ! C n m ! } 6.|.>X,X,X,X>XZ.p % ",
"@ o . . . . X O = t M N A ! ~ E X.F.R 5 ; - = - 2 y m f 3 X X X X X o + # O o o o $ N y.H y.^ ( ! m u n C c { '.>X,X,X,X,X&XL < ",
"< % + o . X . O : M A A ^ _ } +.%.F.a % & ; - - e t b 6 % . . .     X % * = = - : M v.mXfXj.d.p._ n 2 8 n d c E G.>X%X%X%X%XO.p ",
"6 , & % $ # O : N u.p.p.d.g.:.8.S.[.5 + o X o o # 1 7 s 3 o X X X X # - y 2 y t t H C.mXIXKXpXv.h.u = 2 8 s d v T F.%X%X%X%XF.L "
};
